<svg width="771" height="276" viewBox="0 0 771 276" fill="none" xmlns="http://www.w3.org/2000/svg">
<rect width="771" height="276" fill="white"/>
<path d="M18.3672 139V127.727H23.0625C23.9167 127.727 24.6432 127.872 25.2422 128.164C25.8464 128.451 26.3047 128.862 26.6172 129.398C26.9349 129.935 27.0938 130.573 27.0938 131.312V131.328C27.0938 132.052 26.9141 132.703 26.5547 133.281C26.2005 133.854 25.7005 134.268 25.0547 134.523L27.4297 139H24.7578L22.6562 134.875C22.6406 134.875 22.6224 134.875 22.6016 134.875C22.5807 134.875 22.5625 134.875 22.5469 134.875H20.7266V139H18.3672ZM20.7266 133.156H22.8047C23.3932 133.156 23.8516 133 24.1797 132.688C24.513 132.37 24.6797 131.932 24.6797 131.375V131.359C24.6797 130.812 24.5104 130.378 24.1719 130.055C23.8333 129.732 23.3672 129.57 22.7734 129.57H20.7266V133.156ZM32.926 139.18C32.0562 139.18 31.3062 139 30.676 138.641C30.051 138.276 29.5692 137.76 29.2307 137.094C28.8921 136.427 28.7229 135.633 28.7229 134.711V134.703C28.7229 133.792 28.8895 133 29.2229 132.328C29.5614 131.656 30.038 131.135 30.6526 130.766C31.2724 130.396 31.9989 130.211 32.8322 130.211C33.6708 130.211 34.3947 130.391 35.0041 130.75C35.6135 131.109 36.0822 131.612 36.4104 132.258C36.7385 132.904 36.9026 133.661 36.9026 134.531V135.242H29.8635V133.812H35.8088L34.7385 135.164V134.25C34.7385 133.734 34.6578 133.305 34.4963 132.961C34.3401 132.617 34.1213 132.359 33.8401 132.188C33.564 132.01 33.2411 131.922 32.8713 131.922C32.5067 131.922 32.1812 132.013 31.8947 132.195C31.6135 132.372 31.3895 132.635 31.2229 132.984C31.0614 133.328 30.9807 133.75 30.9807 134.25V135.172C30.9807 135.656 31.0614 136.07 31.2229 136.414C31.3843 136.758 31.6135 137.021 31.9104 137.203C32.2072 137.385 32.5614 137.477 32.9729 137.477C33.3062 137.477 33.5901 137.427 33.8244 137.328C34.0588 137.229 34.2463 137.115 34.3869 136.984C34.5328 136.849 34.6317 136.727 34.6838 136.617L34.7072 136.57H36.8322L36.8166 136.648C36.7489 136.919 36.6265 137.203 36.4494 137.5C36.2724 137.792 36.0276 138.065 35.7151 138.32C35.4078 138.576 35.0224 138.784 34.5588 138.945C34.1005 139.102 33.5562 139.18 32.926 139.18ZM41.2895 139.133C40.7478 139.133 40.2635 139.029 39.8364 138.82C39.4145 138.607 39.0838 138.307 38.8442 137.922C38.6046 137.531 38.4848 137.076 38.4848 136.555V136.539C38.4848 136.023 38.6124 135.581 38.8676 135.211C39.128 134.841 39.5056 134.552 40.0004 134.344C40.5004 134.13 41.1072 134.003 41.8207 133.961L45.0239 133.766V135.156L42.1645 135.344C41.6749 135.37 41.3103 135.474 41.0707 135.656C40.8312 135.839 40.7114 136.086 40.7114 136.398V136.414C40.7114 136.742 40.8364 137 41.0864 137.188C41.3364 137.375 41.6593 137.469 42.0551 137.469C42.4093 137.469 42.7244 137.398 43.0004 137.258C43.2765 137.117 43.4952 136.927 43.6567 136.688C43.8181 136.443 43.8989 136.169 43.8989 135.867V133.125C43.8989 132.75 43.7739 132.464 43.5239 132.266C43.2791 132.062 42.9223 131.961 42.4536 131.961C42.0421 131.961 41.7062 132.031 41.4457 132.172C41.1905 132.307 41.0187 132.503 40.9301 132.758L40.9145 132.789H38.8051L38.8129 132.719C38.8754 132.214 39.0655 131.773 39.3832 131.398C39.7062 131.023 40.1385 130.732 40.6801 130.523C41.227 130.315 41.8598 130.211 42.5786 130.211C43.339 130.211 43.9848 130.328 44.5161 130.562C45.0473 130.792 45.451 131.125 45.727 131.562C46.0082 131.995 46.1489 132.516 46.1489 133.125V139H43.8989V137.859H43.7582C43.6124 138.125 43.4171 138.354 43.1723 138.547C42.9327 138.734 42.6515 138.88 42.3286 138.984C42.0109 139.083 41.6645 139.133 41.2895 139.133ZM52.3483 139.18C51.4525 139.18 50.6895 139.005 50.0592 138.656C49.4342 138.302 48.9577 137.792 48.6296 137.125C48.3014 136.453 48.1374 135.641 48.1374 134.688V134.672C48.1374 133.724 48.3014 132.919 48.6296 132.258C48.9577 131.596 49.4342 131.091 50.0592 130.742C50.6895 130.388 51.4525 130.211 52.3483 130.211C53.1087 130.211 53.7624 130.341 54.3092 130.602C54.8561 130.862 55.2884 131.229 55.6061 131.703C55.9238 132.177 56.1165 132.734 56.1842 133.375V133.398H54.0671L54.0592 133.383C53.9811 132.966 53.7988 132.633 53.5124 132.383C53.2311 132.128 52.8457 132 52.3561 132C51.9499 132 51.6035 132.104 51.3171 132.312C51.0358 132.516 50.8223 132.815 50.6764 133.211C50.5306 133.607 50.4577 134.094 50.4577 134.672V134.688C50.4577 135.266 50.5306 135.758 50.6764 136.164C50.8275 136.565 51.0436 136.87 51.3249 137.078C51.6061 137.286 51.9499 137.391 52.3561 137.391C52.8249 137.391 53.1999 137.281 53.4811 137.062C53.7624 136.844 53.9525 136.516 54.0514 136.078L54.0671 136.055L56.1764 136.047V136.102C56.0931 136.721 55.8926 137.263 55.5749 137.727C55.2572 138.19 54.8275 138.549 54.2858 138.805C53.7441 139.055 53.0983 139.18 52.3483 139.18ZM61.7899 139.031C60.7483 139.031 59.9983 138.849 59.5399 138.484C59.0816 138.115 58.8524 137.513 58.8524 136.68V132.117H57.5243V130.398H58.8524V128.344H61.1571V130.398H62.9306V132.117H61.1571V136.156C61.1571 136.542 61.2431 136.826 61.4149 137.008C61.592 137.185 61.8733 137.273 62.2587 137.273C62.4045 137.273 62.5243 137.271 62.6181 137.266C62.717 137.255 62.8212 137.245 62.9306 137.234V138.93C62.7899 138.956 62.6207 138.979 62.4227 139C62.2248 139.021 62.0139 139.031 61.7899 139.031ZM71.6497 139.133C71.1081 139.133 70.6237 139.029 70.1966 138.82C69.7747 138.607 69.444 138.307 69.2044 137.922C68.9649 137.531 68.8451 137.076 68.8451 136.555V136.539C68.8451 136.023 68.9727 135.581 69.2279 135.211C69.4883 134.841 69.8659 134.552 70.3607 134.344C70.8607 134.13 71.4675 134.003 72.181 133.961L75.3841 133.766V135.156L72.5247 135.344C72.0352 135.37 71.6706 135.474 71.431 135.656C71.1914 135.839 71.0716 136.086 71.0716 136.398V136.414C71.0716 136.742 71.1966 137 71.4466 137.188C71.6966 137.375 72.0195 137.469 72.4154 137.469C72.7695 137.469 73.0846 137.398 73.3607 137.258C73.6367 137.117 73.8555 136.927 74.0169 136.688C74.1784 136.443 74.2591 136.169 74.2591 135.867V133.125C74.2591 132.75 74.1341 132.464 73.8841 132.266C73.6393 132.062 73.2826 131.961 72.8138 131.961C72.4024 131.961 72.0664 132.031 71.806 132.172C71.5508 132.307 71.3789 132.503 71.2904 132.758L71.2747 132.789H69.1654L69.1732 132.719C69.2357 132.214 69.4258 131.773 69.7435 131.398C70.0664 131.023 70.4987 130.732 71.0404 130.523C71.5872 130.315 72.2201 130.211 72.9388 130.211C73.6992 130.211 74.3451 130.328 74.8763 130.562C75.4076 130.792 75.8112 131.125 76.0872 131.562C76.3685 131.995 76.5091 132.516 76.5091 133.125V139H74.2591V137.859H74.1185C73.9727 138.125 73.7774 138.354 73.5326 138.547C73.293 138.734 73.0117 138.88 72.6888 138.984C72.3711 139.083 72.0247 139.133 71.6497 139.133ZM78.9195 141.852V130.398H81.2007V131.727H81.3414C81.4924 131.419 81.6903 131.156 81.9351 130.938C82.1851 130.719 82.4768 130.552 82.8101 130.438C83.1435 130.318 83.5132 130.258 83.9195 130.258C84.6382 130.258 85.258 130.438 85.7789 130.797C86.2997 131.156 86.7007 131.667 86.982 132.328C87.2685 132.984 87.4117 133.771 87.4117 134.688V134.703C87.4117 135.625 87.2711 136.417 86.9898 137.078C86.7086 137.74 86.3075 138.247 85.7867 138.602C85.2659 138.956 84.6435 139.133 83.9195 139.133C83.5237 139.133 83.1565 139.073 82.8179 138.953C82.4846 138.828 82.1903 138.654 81.9351 138.43C81.6851 138.206 81.4872 137.938 81.3414 137.625H81.2007V141.852H78.9195ZM83.1382 137.242C83.5445 137.242 83.8909 137.141 84.1773 136.938C84.469 136.734 84.6929 136.443 84.8492 136.062C85.0106 135.682 85.0914 135.229 85.0914 134.703V134.688C85.0914 134.161 85.0106 133.708 84.8492 133.328C84.6929 132.948 84.469 132.656 84.1773 132.453C83.8909 132.25 83.5445 132.148 83.1382 132.148C82.7372 132.148 82.3882 132.25 82.0914 132.453C81.7997 132.656 81.5731 132.948 81.4117 133.328C81.2554 133.703 81.1773 134.156 81.1773 134.688V134.703C81.1773 135.224 81.258 135.677 81.4195 136.062C81.581 136.443 81.8075 136.734 82.0992 136.938C82.3961 137.141 82.7424 137.242 83.1382 137.242ZM89.4549 141.852V130.398H91.7361V131.727H91.8767C92.0278 131.419 92.2257 131.156 92.4705 130.938C92.7205 130.719 93.0122 130.552 93.3455 130.438C93.6788 130.318 94.0486 130.258 94.4549 130.258C95.1736 130.258 95.7934 130.438 96.3142 130.797C96.8351 131.156 97.2361 131.667 97.5174 132.328C97.8038 132.984 97.9471 133.771 97.9471 134.688V134.703C97.9471 135.625 97.8064 136.417 97.5252 137.078C97.2439 137.74 96.8429 138.247 96.3221 138.602C95.8012 138.956 95.1788 139.133 94.4549 139.133C94.059 139.133 93.6919 139.073 93.3533 138.953C93.02 138.828 92.7257 138.654 92.4705 138.43C92.2205 138.206 92.0226 137.938 91.8767 137.625H91.7361V141.852H89.4549ZM93.6736 137.242C94.0799 137.242 94.4262 137.141 94.7127 136.938C95.0044 136.734 95.2283 136.443 95.3846 136.062C95.546 135.682 95.6267 135.229 95.6267 134.703V134.688C95.6267 134.161 95.546 133.708 95.3846 133.328C95.2283 132.948 95.0044 132.656 94.7127 132.453C94.4262 132.25 94.0799 132.148 93.6736 132.148C93.2726 132.148 92.9236 132.25 92.6267 132.453C92.3351 132.656 92.1085 132.948 91.9471 133.328C91.7908 133.703 91.7127 134.156 91.7127 134.688V134.703C91.7127 135.224 91.7934 135.677 91.9549 136.062C92.1163 136.443 92.3429 136.734 92.6346 136.938C92.9314 137.141 93.2778 137.242 93.6736 137.242Z" fill="#0E1116"/>
<path d="M246.555 195L250.555 183.727H252.227V185.82H251.625L248.664 195H246.555ZM248.57 192.086L249.094 190.531H254.266L254.789 192.086H248.57ZM254.719 195L251.758 185.82V183.727H252.82L256.828 195H254.719ZM259.949 191.273V189.648H262.949C263.673 189.648 264.236 189.464 264.637 189.094C265.038 188.719 265.238 188.193 265.238 187.516V187.5C265.238 186.818 265.038 186.292 264.637 185.922C264.236 185.552 263.673 185.367 262.949 185.367H259.949V183.727H263.442C264.207 183.727 264.877 183.883 265.449 184.195C266.022 184.508 266.47 184.948 266.793 185.516C267.116 186.078 267.278 186.737 267.278 187.492V187.508C267.278 188.258 267.116 188.917 266.793 189.484C266.47 190.047 266.022 190.487 265.449 190.805C264.877 191.117 264.207 191.273 263.442 191.273H259.949ZM258.942 195V183.727H260.957V195H258.942ZM269.68 195V183.727H271.696V195H269.68ZM283.009 195.281C282.134 195.281 281.373 195.146 280.727 194.875C280.087 194.604 279.582 194.227 279.212 193.742C278.842 193.258 278.634 192.693 278.587 192.047L278.579 191.938H280.532L280.54 192.016C280.571 192.333 280.696 192.609 280.915 192.844C281.139 193.078 281.436 193.263 281.806 193.398C282.175 193.529 282.597 193.594 283.071 193.594C283.524 193.594 283.925 193.523 284.274 193.383C284.623 193.242 284.897 193.049 285.095 192.805C285.293 192.555 285.392 192.268 285.392 191.945V191.938C285.392 191.531 285.233 191.201 284.915 190.945C284.597 190.685 284.074 190.477 283.345 190.32L282.134 190.07C280.977 189.826 280.136 189.435 279.61 188.898C279.089 188.357 278.829 187.667 278.829 186.828V186.82C278.829 186.148 279.006 185.56 279.36 185.055C279.72 184.549 280.212 184.156 280.837 183.875C281.467 183.589 282.188 183.445 283.001 183.445C283.834 183.445 284.556 183.586 285.165 183.867C285.774 184.143 286.253 184.521 286.602 185C286.951 185.479 287.147 186.021 287.188 186.625L287.196 186.727H285.274L285.259 186.633C285.212 186.336 285.089 186.078 284.892 185.859C284.699 185.635 284.441 185.458 284.118 185.328C283.795 185.198 283.418 185.133 282.985 185.133C282.574 185.133 282.207 185.198 281.884 185.328C281.561 185.453 281.306 185.63 281.118 185.859C280.936 186.089 280.845 186.365 280.845 186.688V186.695C280.845 187.091 280.998 187.419 281.306 187.68C281.618 187.94 282.126 188.143 282.829 188.289L284.04 188.547C284.832 188.714 285.475 188.935 285.97 189.211C286.464 189.487 286.826 189.831 287.056 190.242C287.29 190.648 287.407 191.138 287.407 191.711V191.719C287.407 192.448 287.227 193.078 286.868 193.609C286.514 194.141 286.006 194.552 285.345 194.844C284.688 195.135 283.91 195.281 283.009 195.281ZM293.302 195.172C292.453 195.172 291.724 194.992 291.114 194.633C290.51 194.273 290.044 193.763 289.716 193.102C289.388 192.44 289.224 191.656 289.224 190.75V190.742C289.224 189.846 289.385 189.065 289.708 188.398C290.036 187.732 290.5 187.216 291.099 186.852C291.698 186.482 292.401 186.297 293.208 186.297C294.021 186.297 294.719 186.477 295.302 186.836C295.89 187.19 296.344 187.688 296.661 188.328C296.979 188.969 297.138 189.719 297.138 190.578V191.219H290.2V189.914H296.185L295.263 191.133V190.359C295.263 189.792 295.177 189.32 295.005 188.945C294.833 188.57 294.594 188.289 294.286 188.102C293.984 187.914 293.633 187.82 293.232 187.82C292.831 187.82 292.474 187.919 292.161 188.117C291.854 188.31 291.609 188.596 291.427 188.977C291.25 189.352 291.161 189.812 291.161 190.359V191.141C291.161 191.667 291.25 192.117 291.427 192.492C291.604 192.862 291.854 193.148 292.177 193.352C292.505 193.549 292.893 193.648 293.341 193.648C293.69 193.648 293.989 193.599 294.239 193.5C294.495 193.396 294.7 193.273 294.857 193.133C295.013 192.987 295.122 192.849 295.185 192.719L295.208 192.664H297.052L297.036 192.734C296.969 193.01 296.844 193.292 296.661 193.578C296.484 193.859 296.242 194.122 295.935 194.367C295.633 194.607 295.263 194.802 294.825 194.953C294.388 195.099 293.88 195.172 293.302 195.172ZM299.259 195V186.461H301.204V187.773H301.337C301.483 187.315 301.743 186.958 302.118 186.703C302.499 186.448 302.97 186.32 303.533 186.32C303.678 186.32 303.822 186.331 303.962 186.352C304.108 186.367 304.228 186.388 304.322 186.414V188.156C304.165 188.12 304.007 188.094 303.845 188.078C303.689 188.057 303.525 188.047 303.353 188.047C302.921 188.047 302.543 188.128 302.22 188.289C301.897 188.451 301.647 188.682 301.47 188.984C301.293 189.281 301.204 189.633 301.204 190.039V195H299.259ZM308.498 195L305.459 186.461H307.537L309.505 193.102H309.646L311.607 186.461H313.654L310.623 195H308.498ZM318.783 195.172C317.934 195.172 317.205 194.992 316.595 194.633C315.991 194.273 315.525 193.763 315.197 193.102C314.869 192.44 314.705 191.656 314.705 190.75V190.742C314.705 189.846 314.866 189.065 315.189 188.398C315.517 187.732 315.981 187.216 316.58 186.852C317.179 186.482 317.882 186.297 318.689 186.297C319.502 186.297 320.2 186.477 320.783 186.836C321.372 187.19 321.825 187.688 322.142 188.328C322.46 188.969 322.619 189.719 322.619 190.578V191.219H315.681V189.914H321.666L320.744 191.133V190.359C320.744 189.792 320.658 189.32 320.486 188.945C320.314 188.57 320.075 188.289 319.767 188.102C319.465 187.914 319.114 187.82 318.713 187.82C318.312 187.82 317.955 187.919 317.642 188.117C317.335 188.31 317.09 188.596 316.908 188.977C316.731 189.352 316.642 189.812 316.642 190.359V191.141C316.642 191.667 316.731 192.117 316.908 192.492C317.085 192.862 317.335 193.148 317.658 193.352C317.986 193.549 318.374 193.648 318.822 193.648C319.171 193.648 319.47 193.599 319.72 193.5C319.976 193.396 320.181 193.273 320.338 193.133C320.494 192.987 320.603 192.849 320.666 192.719L320.689 192.664H322.533L322.517 192.734C322.45 193.01 322.325 193.292 322.142 193.578C321.965 193.859 321.723 194.122 321.416 194.367C321.114 194.607 320.744 194.802 320.306 194.953C319.869 195.099 319.361 195.172 318.783 195.172ZM324.74 195V186.461H326.686V187.773H326.818C326.964 187.315 327.225 186.958 327.6 186.703C327.98 186.448 328.451 186.32 329.014 186.32C329.16 186.32 329.303 186.331 329.443 186.352C329.589 186.367 329.709 186.388 329.803 186.414V188.156C329.646 188.12 329.488 188.094 329.326 188.078C329.17 188.057 329.006 188.047 328.834 188.047C328.402 188.047 328.024 188.128 327.701 188.289C327.378 188.451 327.128 188.682 326.951 188.984C326.774 189.281 326.686 189.633 326.686 190.039V195H324.74Z" fill="#0E1116"/>
<path d="M475.391 195V183.727H477.703L481.094 192.406H481.227L484.609 183.727H486.922V195H485.109V186.984H484.125L486.125 184.039L481.844 195H480.469L476.195 184.039L478.195 186.984H477.203V195H475.391ZM493.363 195.172C492.515 195.172 491.783 194.995 491.168 194.641C490.554 194.281 490.08 193.771 489.746 193.109C489.418 192.448 489.254 191.656 489.254 190.734V190.719C489.254 189.807 489.421 189.021 489.754 188.359C490.087 187.693 490.559 187.182 491.168 186.828C491.783 186.474 492.515 186.297 493.363 186.297C494.212 186.297 494.942 186.474 495.551 186.828C496.166 187.182 496.64 187.69 496.973 188.352C497.306 189.013 497.473 189.802 497.473 190.719V190.734C497.473 191.656 497.306 192.448 496.973 193.109C496.645 193.771 496.173 194.281 495.559 194.641C494.949 194.995 494.218 195.172 493.363 195.172ZM493.363 193.594C493.811 193.594 494.192 193.482 494.504 193.258C494.822 193.029 495.064 192.703 495.231 192.281C495.397 191.854 495.481 191.341 495.481 190.742V190.727C495.481 190.122 495.397 189.609 495.231 189.188C495.064 188.76 494.822 188.435 494.504 188.211C494.192 187.982 493.811 187.867 493.363 187.867C492.916 187.867 492.533 187.982 492.215 188.211C491.897 188.435 491.655 188.76 491.488 189.188C491.322 189.609 491.238 190.122 491.238 190.727V190.742C491.238 191.341 491.322 191.854 491.488 192.281C491.655 192.708 491.895 193.034 492.207 193.258C492.525 193.482 492.91 193.594 493.363 193.594ZM501.555 195L498.516 186.461H500.594L502.563 193.102H502.704L504.664 186.461H506.711L503.68 195H501.555ZM508.551 195V186.461H510.489V195H508.551ZM509.528 185.031C509.21 185.031 508.937 184.919 508.708 184.695C508.479 184.471 508.364 184.203 508.364 183.891C508.364 183.568 508.479 183.297 508.708 183.078C508.937 182.854 509.21 182.742 509.528 182.742C509.846 182.742 510.117 182.854 510.34 183.078C510.57 183.297 510.684 183.568 510.684 183.891C510.684 184.203 510.57 184.471 510.34 184.695C510.117 184.919 509.846 185.031 509.528 185.031ZM516.72 195.172C515.871 195.172 515.141 194.992 514.532 194.633C513.928 194.273 513.462 193.763 513.134 193.102C512.806 192.44 512.641 191.656 512.641 190.75V190.742C512.641 189.846 512.803 189.065 513.126 188.398C513.454 187.732 513.918 187.216 514.516 186.852C515.115 186.482 515.819 186.297 516.626 186.297C517.438 186.297 518.136 186.477 518.72 186.836C519.308 187.19 519.761 187.688 520.079 188.328C520.397 188.969 520.556 189.719 520.556 190.578V191.219H513.618V189.914H519.602L518.681 191.133V190.359C518.681 189.792 518.595 189.32 518.423 188.945C518.251 188.57 518.011 188.289 517.704 188.102C517.402 187.914 517.05 187.82 516.649 187.82C516.248 187.82 515.891 187.919 515.579 188.117C515.272 188.31 515.027 188.596 514.845 188.977C514.668 189.352 514.579 189.812 514.579 190.359V191.141C514.579 191.667 514.668 192.117 514.845 192.492C515.022 192.862 515.272 193.148 515.595 193.352C515.923 193.549 516.311 193.648 516.759 193.648C517.108 193.648 517.407 193.599 517.657 193.5C517.912 193.396 518.118 193.273 518.274 193.133C518.431 192.987 518.54 192.849 518.602 192.719L518.626 192.664H520.47L520.454 192.734C520.386 193.01 520.261 193.292 520.079 193.578C519.902 193.859 519.66 194.122 519.352 194.367C519.05 194.607 518.681 194.802 518.243 194.953C517.806 195.099 517.298 195.172 516.72 195.172ZM530.197 195.141C529.488 195.141 528.871 194.964 528.345 194.609C527.819 194.25 527.413 193.74 527.126 193.078C526.84 192.417 526.697 191.638 526.697 190.742V190.727C526.697 189.82 526.837 189.039 527.118 188.383C527.405 187.721 527.809 187.214 528.329 186.859C528.855 186.5 529.478 186.32 530.197 186.32C530.587 186.32 530.952 186.383 531.29 186.508C531.629 186.628 531.926 186.799 532.181 187.023C532.441 187.247 532.645 187.513 532.79 187.82H532.931V183.156H534.868V195H532.931V193.664H532.79C532.634 193.971 532.428 194.237 532.173 194.461C531.923 194.68 531.632 194.849 531.298 194.969C530.965 195.083 530.598 195.141 530.197 195.141ZM530.806 193.5C531.249 193.5 531.629 193.391 531.947 193.172C532.27 192.948 532.517 192.63 532.689 192.219C532.866 191.802 532.954 191.31 532.954 190.742V190.727C532.954 190.154 532.866 189.661 532.689 189.25C532.517 188.839 532.27 188.521 531.947 188.297C531.629 188.073 531.249 187.961 530.806 187.961C530.368 187.961 529.988 188.073 529.665 188.297C529.348 188.516 529.103 188.833 528.931 189.25C528.759 189.661 528.673 190.154 528.673 190.727V190.742C528.673 191.315 528.759 191.807 528.931 192.219C529.103 192.63 529.348 192.948 529.665 193.172C529.983 193.391 530.363 193.5 530.806 193.5ZM539.826 195.141C539.289 195.141 538.808 195.036 538.38 194.828C537.959 194.62 537.625 194.326 537.38 193.945C537.141 193.56 537.021 193.107 537.021 192.586V192.57C537.021 192.065 537.146 191.63 537.396 191.266C537.646 190.896 538.013 190.607 538.498 190.398C538.982 190.19 539.571 190.068 540.263 190.031L543.419 189.836V191.117L540.537 191.305C539.99 191.336 539.586 191.451 539.326 191.648C539.065 191.846 538.935 192.122 538.935 192.477V192.492C538.935 192.857 539.073 193.141 539.349 193.344C539.63 193.547 539.987 193.648 540.419 193.648C540.81 193.648 541.159 193.57 541.466 193.414C541.774 193.258 542.016 193.047 542.193 192.781C542.37 192.51 542.459 192.206 542.459 191.867V189.164C542.459 188.737 542.323 188.411 542.052 188.188C541.781 187.958 541.38 187.844 540.849 187.844C540.406 187.844 540.044 187.922 539.763 188.078C539.482 188.229 539.292 188.445 539.193 188.727L539.185 188.758H537.349L537.357 188.688C537.419 188.208 537.607 187.789 537.919 187.43C538.232 187.07 538.646 186.792 539.162 186.594C539.677 186.396 540.271 186.297 540.943 186.297C541.683 186.297 542.308 186.411 542.818 186.641C543.328 186.865 543.716 187.193 543.982 187.625C544.248 188.052 544.38 188.565 544.38 189.164V195H542.459V193.828H542.326C542.169 194.099 541.966 194.333 541.716 194.531C541.472 194.729 541.19 194.88 540.873 194.984C540.555 195.089 540.206 195.141 539.826 195.141ZM550.252 195.039C549.273 195.039 548.567 194.859 548.135 194.5C547.702 194.141 547.486 193.552 547.486 192.734V187.969H546.158V186.461H547.486V184.367H549.463V186.461H551.26V187.969H549.463V192.273C549.463 192.695 549.551 193.005 549.728 193.203C549.911 193.396 550.202 193.492 550.603 193.492C550.744 193.492 550.859 193.49 550.947 193.484C551.041 193.474 551.145 193.464 551.26 193.453V194.953C551.124 194.979 550.968 195 550.791 195.016C550.619 195.031 550.439 195.039 550.252 195.039ZM555.709 195.141C555.173 195.141 554.691 195.036 554.264 194.828C553.842 194.62 553.508 194.326 553.264 193.945C553.024 193.56 552.904 193.107 552.904 192.586V192.57C552.904 192.065 553.029 191.63 553.279 191.266C553.529 190.896 553.896 190.607 554.381 190.398C554.865 190.19 555.454 190.068 556.146 190.031L559.303 189.836V191.117L556.42 191.305C555.873 191.336 555.469 191.451 555.209 191.648C554.949 191.846 554.818 192.122 554.818 192.477V192.492C554.818 192.857 554.956 193.141 555.232 193.344C555.514 193.547 555.87 193.648 556.303 193.648C556.693 193.648 557.042 193.57 557.35 193.414C557.657 193.258 557.899 193.047 558.076 192.781C558.253 192.51 558.342 192.206 558.342 191.867V189.164C558.342 188.737 558.206 188.411 557.936 188.188C557.665 187.958 557.264 187.844 556.732 187.844C556.29 187.844 555.928 187.922 555.646 188.078C555.365 188.229 555.175 188.445 555.076 188.727L555.068 188.758H553.232L553.24 188.688C553.303 188.208 553.49 187.789 553.803 187.43C554.115 187.07 554.529 186.792 555.045 186.594C555.561 186.396 556.154 186.297 556.826 186.297C557.566 186.297 558.191 186.411 558.701 186.641C559.212 186.865 559.6 187.193 559.865 187.625C560.131 188.052 560.264 188.565 560.264 189.164V195H558.342V193.828H558.209C558.053 194.099 557.85 194.333 557.6 194.531C557.355 194.729 557.074 194.88 556.756 194.984C556.438 195.089 556.089 195.141 555.709 195.141ZM567.526 195.141C567.125 195.141 566.757 195.083 566.424 194.969C566.091 194.849 565.796 194.68 565.541 194.461C565.291 194.237 565.088 193.971 564.932 193.664H564.799V195H562.854V183.156H564.799V187.82H564.932C565.083 187.513 565.286 187.247 565.541 187.023C565.796 186.799 566.093 186.628 566.432 186.508C566.77 186.383 567.135 186.32 567.526 186.32C568.244 186.32 568.864 186.5 569.385 186.859C569.911 187.214 570.317 187.721 570.604 188.383C570.89 189.039 571.033 189.82 571.033 190.727V190.742C571.033 191.638 570.888 192.417 570.596 193.078C570.309 193.74 569.903 194.25 569.377 194.609C568.856 194.964 568.239 195.141 567.526 195.141ZM566.916 193.5C567.359 193.5 567.739 193.391 568.057 193.172C568.375 192.948 568.619 192.63 568.791 192.219C568.963 191.807 569.049 191.315 569.049 190.742V190.727C569.049 190.154 568.963 189.661 568.791 189.25C568.619 188.833 568.375 188.516 568.057 188.297C567.739 188.073 567.359 187.961 566.916 187.961C566.479 187.961 566.099 188.073 565.776 188.297C565.453 188.521 565.203 188.839 565.026 189.25C564.854 189.661 564.768 190.154 564.768 190.727V190.742C564.768 191.31 564.854 191.802 565.026 192.219C565.203 192.63 565.45 192.948 565.768 193.172C566.091 193.391 566.474 193.5 566.916 193.5ZM575.483 195.141C574.946 195.141 574.465 195.036 574.038 194.828C573.616 194.62 573.282 194.326 573.038 193.945C572.798 193.56 572.678 193.107 572.678 192.586V192.57C572.678 192.065 572.803 191.63 573.053 191.266C573.303 190.896 573.67 190.607 574.155 190.398C574.639 190.19 575.228 190.068 575.92 190.031L579.077 189.836V191.117L576.194 191.305C575.647 191.336 575.243 191.451 574.983 191.648C574.722 191.846 574.592 192.122 574.592 192.477V192.492C574.592 192.857 574.73 193.141 575.006 193.344C575.288 193.547 575.644 193.648 576.077 193.648C576.467 193.648 576.816 193.57 577.123 193.414C577.431 193.258 577.673 193.047 577.85 192.781C578.027 192.51 578.116 192.206 578.116 191.867V189.164C578.116 188.737 577.98 188.411 577.709 188.188C577.439 187.958 577.038 187.844 576.506 187.844C576.064 187.844 575.702 187.922 575.42 188.078C575.139 188.229 574.949 188.445 574.85 188.727L574.842 188.758H573.006L573.014 188.688C573.077 188.208 573.264 187.789 573.577 187.43C573.889 187.07 574.303 186.792 574.819 186.594C575.334 186.396 575.928 186.297 576.6 186.297C577.34 186.297 577.965 186.411 578.475 186.641C578.985 186.865 579.373 187.193 579.639 187.625C579.905 188.052 580.038 188.565 580.038 189.164V195H578.116V193.828H577.983C577.827 194.099 577.623 194.333 577.373 194.531C577.129 194.729 576.847 194.88 576.53 194.984C576.212 195.089 575.863 195.141 575.483 195.141ZM585.776 195.172C585.052 195.172 584.427 195.07 583.901 194.867C583.38 194.659 582.969 194.372 582.667 194.008C582.365 193.638 582.185 193.211 582.128 192.727V192.711H584.057L584.065 192.727C584.169 193.023 584.365 193.266 584.651 193.453C584.938 193.641 585.323 193.734 585.807 193.734C586.13 193.734 586.414 193.69 586.659 193.602C586.904 193.508 587.096 193.38 587.237 193.219C587.378 193.057 587.448 192.87 587.448 192.656V192.641C587.448 192.391 587.346 192.182 587.143 192.016C586.94 191.844 586.604 191.706 586.135 191.602L584.753 191.289C584.211 191.169 583.763 191.003 583.409 190.789C583.055 190.576 582.789 190.312 582.612 190C582.44 189.688 582.354 189.323 582.354 188.906V188.898C582.354 188.383 582.497 187.93 582.784 187.539C583.076 187.148 583.479 186.844 583.995 186.625C584.51 186.406 585.104 186.297 585.776 186.297C586.469 186.297 587.065 186.401 587.565 186.609C588.065 186.818 588.456 187.104 588.737 187.469C589.018 187.833 589.18 188.247 589.221 188.711V188.727H587.393L587.385 188.703C587.313 188.432 587.138 188.203 586.862 188.016C586.591 187.823 586.227 187.727 585.768 187.727C585.482 187.727 585.224 187.771 584.995 187.859C584.771 187.948 584.594 188.073 584.464 188.234C584.339 188.391 584.276 188.576 584.276 188.789V188.797C584.276 188.964 584.318 189.109 584.401 189.234C584.49 189.359 584.628 189.469 584.815 189.562C585.003 189.656 585.25 189.74 585.557 189.812L586.94 190.117C587.779 190.305 588.398 190.583 588.799 190.953C589.201 191.323 589.401 191.82 589.401 192.445V192.461C589.401 193.003 589.245 193.477 588.932 193.883C588.62 194.289 588.19 194.607 587.643 194.836C587.096 195.06 586.474 195.172 585.776 195.172ZM595.194 195.172C594.345 195.172 593.616 194.992 593.007 194.633C592.403 194.273 591.936 193.763 591.608 193.102C591.28 192.44 591.116 191.656 591.116 190.75V190.742C591.116 189.846 591.278 189.065 591.601 188.398C591.929 187.732 592.392 187.216 592.991 186.852C593.59 186.482 594.293 186.297 595.101 186.297C595.913 186.297 596.611 186.477 597.194 186.836C597.783 187.19 598.236 187.688 598.554 188.328C598.871 188.969 599.03 189.719 599.03 190.578V191.219H592.093V189.914H598.077L597.155 191.133V190.359C597.155 189.792 597.069 189.32 596.897 188.945C596.726 188.57 596.486 188.289 596.179 188.102C595.877 187.914 595.525 187.82 595.124 187.82C594.723 187.82 594.366 187.919 594.054 188.117C593.746 188.31 593.502 188.596 593.319 188.977C593.142 189.352 593.054 189.812 593.054 190.359V191.141C593.054 191.667 593.142 192.117 593.319 192.492C593.496 192.862 593.746 193.148 594.069 193.352C594.397 193.549 594.785 193.648 595.233 193.648C595.582 193.648 595.882 193.599 596.132 193.5C596.387 193.396 596.593 193.273 596.749 193.133C596.905 192.987 597.015 192.849 597.077 192.719L597.101 192.664H598.944L598.929 192.734C598.861 193.01 598.736 193.292 598.554 193.578C598.377 193.859 598.134 194.122 597.827 194.367C597.525 194.607 597.155 194.802 596.718 194.953C596.28 195.099 595.772 195.172 595.194 195.172Z" fill="#0E1116"/>
<path d="M246.555 83L250.555 71.7266H252.227V73.8203H251.625L248.664 83H246.555ZM248.57 80.0859L249.094 78.5312H254.266L254.789 80.0859H248.57ZM254.719 83L251.758 73.8203V71.7266H252.82L256.828 83H254.719ZM261.762 83.1719C261.038 83.1719 260.413 83.0703 259.887 82.8672C259.366 82.6589 258.955 82.3724 258.653 82.0078C258.35 81.638 258.171 81.2109 258.113 80.7266V80.7109H260.043L260.051 80.7266C260.155 81.0234 260.35 81.2656 260.637 81.4531C260.923 81.6406 261.309 81.7344 261.793 81.7344C262.116 81.7344 262.4 81.6901 262.645 81.6016C262.89 81.5078 263.082 81.3802 263.223 81.2188C263.363 81.0573 263.434 80.8698 263.434 80.6562V80.6406C263.434 80.3906 263.332 80.1823 263.129 80.0156C262.926 79.8438 262.59 79.7057 262.121 79.6016L260.738 79.2891C260.197 79.1693 259.749 79.0026 259.395 78.7891C259.041 78.5755 258.775 78.3125 258.598 78C258.426 77.6875 258.34 77.3229 258.34 76.9062V76.8984C258.34 76.3828 258.483 75.9297 258.77 75.5391C259.061 75.1484 259.465 74.8438 259.981 74.625C260.496 74.4062 261.09 74.2969 261.762 74.2969C262.455 74.2969 263.051 74.401 263.551 74.6094C264.051 74.8177 264.442 75.1042 264.723 75.4688C265.004 75.8333 265.166 76.2474 265.207 76.7109V76.7266H263.379L263.371 76.7031C263.298 76.4323 263.124 76.2031 262.848 76.0156C262.577 75.8229 262.212 75.7266 261.754 75.7266C261.468 75.7266 261.21 75.7708 260.981 75.8594C260.757 75.9479 260.58 76.0729 260.449 76.2344C260.324 76.3906 260.262 76.5755 260.262 76.7891V76.7969C260.262 76.9635 260.304 77.1094 260.387 77.2344C260.475 77.3594 260.613 77.4688 260.801 77.5625C260.988 77.6562 261.236 77.7396 261.543 77.8125L262.926 78.1172C263.765 78.3047 264.384 78.5833 264.785 78.9531C265.186 79.3229 265.387 79.8203 265.387 80.4453V80.4609C265.387 81.0026 265.231 81.4766 264.918 81.8828C264.606 82.2891 264.176 82.6068 263.629 82.8359C263.082 83.0599 262.46 83.1719 261.762 83.1719ZM270.594 83.1719C269.87 83.1719 269.245 83.0703 268.719 82.8672C268.198 82.6589 267.787 82.3724 267.485 82.0078C267.183 81.638 267.003 81.2109 266.946 80.7266V80.7109H268.875L268.883 80.7266C268.987 81.0234 269.183 81.2656 269.469 81.4531C269.756 81.6406 270.141 81.7344 270.625 81.7344C270.948 81.7344 271.232 81.6901 271.477 81.6016C271.722 81.5078 271.914 81.3802 272.055 81.2188C272.196 81.0573 272.266 80.8698 272.266 80.6562V80.6406C272.266 80.3906 272.164 80.1823 271.961 80.0156C271.758 79.8438 271.422 79.7057 270.954 79.6016L269.571 79.2891C269.029 79.1693 268.581 79.0026 268.227 78.7891C267.873 78.5755 267.607 78.3125 267.43 78C267.258 77.6875 267.172 77.3229 267.172 76.9062V76.8984C267.172 76.3828 267.316 75.9297 267.602 75.5391C267.894 75.1484 268.297 74.8438 268.813 74.625C269.329 74.4062 269.922 74.2969 270.594 74.2969C271.287 74.2969 271.883 74.401 272.383 74.6094C272.883 74.8177 273.274 75.1042 273.555 75.4688C273.836 75.8333 273.998 76.2474 274.039 76.7109V76.7266H272.211L272.204 76.7031C272.131 76.4323 271.956 76.2031 271.68 76.0156C271.409 75.8229 271.045 75.7266 270.586 75.7266C270.3 75.7266 270.042 75.7708 269.813 75.8594C269.589 75.9479 269.412 76.0729 269.282 76.2344C269.157 76.3906 269.094 76.5755 269.094 76.7891V76.7969C269.094 76.9635 269.136 77.1094 269.219 77.2344C269.308 77.3594 269.446 77.4688 269.633 77.5625C269.821 77.6562 270.068 77.7396 270.375 77.8125L271.758 78.1172C272.597 78.3047 273.217 78.5833 273.618 78.9531C274.019 79.3229 274.219 79.8203 274.219 80.4453V80.4609C274.219 81.0026 274.063 81.4766 273.75 81.8828C273.438 82.2891 273.008 82.6068 272.461 82.8359C271.914 83.0599 271.292 83.1719 270.594 83.1719ZM280.012 83.1719C279.163 83.1719 278.434 82.9922 277.825 82.6328C277.221 82.2734 276.755 81.763 276.426 81.1016C276.098 80.4401 275.934 79.6562 275.934 78.75V78.7422C275.934 77.8464 276.096 77.0651 276.419 76.3984C276.747 75.7318 277.21 75.2161 277.809 74.8516C278.408 74.4818 279.111 74.2969 279.919 74.2969C280.731 74.2969 281.429 74.4766 282.012 74.8359C282.601 75.1901 283.054 75.6875 283.372 76.3281C283.689 76.9688 283.848 77.7188 283.848 78.5781V79.2188H276.911V77.9141H282.895L281.973 79.1328V78.3594C281.973 77.7917 281.887 77.3203 281.715 76.9453C281.544 76.5703 281.304 76.2891 280.997 76.1016C280.695 75.9141 280.343 75.8203 279.942 75.8203C279.541 75.8203 279.184 75.9193 278.872 76.1172C278.564 76.3099 278.32 76.5964 278.137 76.9766C277.96 77.3516 277.872 77.8125 277.872 78.3594V79.1406C277.872 79.6667 277.96 80.1172 278.137 80.4922C278.314 80.862 278.564 81.1484 278.887 81.3516C279.215 81.5495 279.604 81.6484 280.051 81.6484C280.4 81.6484 280.7 81.599 280.95 81.5C281.205 81.3958 281.411 81.2734 281.567 81.1328C281.723 80.987 281.833 80.849 281.895 80.7188L281.919 80.6641H283.762L283.747 80.7344C283.679 81.0104 283.554 81.2917 283.372 81.5781C283.195 81.8594 282.952 82.1224 282.645 82.3672C282.343 82.6068 281.973 82.8021 281.536 82.9531C281.098 83.099 280.59 83.1719 280.012 83.1719ZM289.329 83.0391C288.35 83.0391 287.644 82.8594 287.212 82.5C286.78 82.1406 286.563 81.5521 286.563 80.7344V75.9688H285.235V74.4609H286.563V72.3672H288.54V74.4609H290.337V75.9688H288.54V80.2734C288.54 80.6953 288.628 81.0052 288.806 81.2031C288.988 81.3958 289.28 81.4922 289.681 81.4922C289.821 81.4922 289.936 81.4896 290.024 81.4844C290.118 81.474 290.222 81.4635 290.337 81.4531V82.9531C290.201 82.9792 290.045 83 289.868 83.0156C289.696 83.0312 289.516 83.0391 289.329 83.0391ZM295.575 83.1719C294.851 83.1719 294.226 83.0703 293.7 82.8672C293.179 82.6589 292.768 82.3724 292.466 82.0078C292.164 81.638 291.984 81.2109 291.927 80.7266V80.7109H293.857L293.864 80.7266C293.969 81.0234 294.164 81.2656 294.45 81.4531C294.737 81.6406 295.122 81.7344 295.607 81.7344C295.929 81.7344 296.213 81.6901 296.458 81.6016C296.703 81.5078 296.896 81.3802 297.036 81.2188C297.177 81.0573 297.247 80.8698 297.247 80.6562V80.6406C297.247 80.3906 297.146 80.1823 296.943 80.0156C296.739 79.8438 296.403 79.7057 295.935 79.6016L294.552 79.2891C294.01 79.1693 293.562 79.0026 293.208 78.7891C292.854 78.5755 292.588 78.3125 292.411 78C292.239 77.6875 292.153 77.3229 292.153 76.9062V76.8984C292.153 76.3828 292.297 75.9297 292.583 75.5391C292.875 75.1484 293.278 74.8438 293.794 74.625C294.31 74.4062 294.903 74.2969 295.575 74.2969C296.268 74.2969 296.864 74.401 297.364 74.6094C297.864 74.8177 298.255 75.1042 298.536 75.4688C298.818 75.8333 298.979 76.2474 299.021 76.7109V76.7266H297.193L297.185 76.7031C297.112 76.4323 296.937 76.2031 296.661 76.0156C296.39 75.8229 296.026 75.7266 295.568 75.7266C295.281 75.7266 295.023 75.7708 294.794 75.8594C294.57 75.9479 294.393 76.0729 294.263 76.2344C294.138 76.3906 294.075 76.5755 294.075 76.7891V76.7969C294.075 76.9635 294.117 77.1094 294.2 77.2344C294.289 77.3594 294.427 77.4688 294.614 77.5625C294.802 77.6562 295.049 77.7396 295.357 77.8125L296.739 78.1172C297.578 78.3047 298.198 78.5833 298.599 78.9531C299 79.3229 299.2 79.8203 299.2 80.4453V80.4609C299.2 81.0026 299.044 81.4766 298.732 81.8828C298.419 82.2891 297.989 82.6068 297.443 82.8359C296.896 83.0599 296.273 83.1719 295.575 83.1719ZM309.896 83.2812C309.021 83.2812 308.261 83.1458 307.615 82.875C306.974 82.6042 306.469 82.2266 306.099 81.7422C305.729 81.2578 305.521 80.6927 305.474 80.0469L305.466 79.9375H307.419L307.427 80.0156C307.459 80.3333 307.584 80.6094 307.802 80.8438C308.026 81.0781 308.323 81.263 308.693 81.3984C309.063 81.5286 309.485 81.5938 309.959 81.5938C310.412 81.5938 310.813 81.5234 311.162 81.3828C311.511 81.2422 311.784 81.0495 311.982 80.8047C312.18 80.5547 312.279 80.2682 312.279 79.9453V79.9375C312.279 79.5312 312.12 79.2005 311.802 78.9453C311.485 78.6849 310.961 78.4766 310.232 78.3203L309.021 78.0703C307.865 77.8255 307.024 77.4349 306.498 76.8984C305.977 76.3568 305.716 75.6667 305.716 74.8281V74.8203C305.716 74.1484 305.893 73.5599 306.248 73.0547C306.607 72.5495 307.099 72.1562 307.724 71.875C308.354 71.5885 309.076 71.4453 309.888 71.4453C310.722 71.4453 311.443 71.5859 312.052 71.8672C312.662 72.1432 313.141 72.5208 313.49 73C313.839 73.4792 314.034 74.0208 314.076 74.625L314.084 74.7266H312.162L312.146 74.6328C312.099 74.3359 311.977 74.0781 311.779 73.8594C311.586 73.6354 311.328 73.4583 311.005 73.3281C310.683 73.1979 310.305 73.1328 309.873 73.1328C309.461 73.1328 309.094 73.1979 308.771 73.3281C308.448 73.4531 308.193 73.6302 308.005 73.8594C307.823 74.0885 307.732 74.3646 307.732 74.6875V74.6953C307.732 75.0911 307.886 75.4193 308.193 75.6797C308.505 75.9401 309.013 76.1432 309.716 76.2891L310.927 76.5469C311.719 76.7135 312.362 76.9349 312.857 77.2109C313.352 77.487 313.714 77.8307 313.943 78.2422C314.177 78.6484 314.294 79.138 314.294 79.7109V79.7188C314.294 80.4479 314.115 81.0781 313.755 81.6094C313.401 82.1406 312.893 82.5521 312.232 82.8438C311.576 83.1354 310.797 83.2812 309.896 83.2812ZM319.892 83.0391C318.913 83.0391 318.207 82.8594 317.775 82.5C317.343 82.1406 317.127 81.5521 317.127 80.7344V75.9688H315.799V74.4609H317.127V72.3672H319.103V74.4609H320.9V75.9688H319.103V80.2734C319.103 80.6953 319.192 81.0052 319.369 81.2031C319.551 81.3958 319.843 81.4922 320.244 81.4922C320.385 81.4922 320.499 81.4896 320.588 81.4844C320.681 81.474 320.786 81.4635 320.9 81.4531V82.9531C320.765 82.9792 320.609 83 320.431 83.0156C320.26 83.0312 320.08 83.0391 319.892 83.0391ZM326.631 83.1719C325.782 83.1719 325.05 82.9948 324.436 82.6406C323.821 82.2812 323.347 81.7708 323.014 81.1094C322.686 80.4479 322.521 79.6562 322.521 78.7344V78.7188C322.521 77.8073 322.688 77.0208 323.021 76.3594C323.355 75.6927 323.826 75.1823 324.436 74.8281C325.05 74.474 325.782 74.2969 326.631 74.2969C327.48 74.2969 328.209 74.474 328.818 74.8281C329.433 75.1823 329.907 75.6901 330.24 76.3516C330.574 77.013 330.74 77.8021 330.74 78.7188V78.7344C330.74 79.6562 330.574 80.4479 330.24 81.1094C329.912 81.7708 329.441 82.2812 328.826 82.6406C328.217 82.9948 327.485 83.1719 326.631 83.1719ZM326.631 81.5938C327.079 81.5938 327.459 81.4818 327.771 81.2578C328.089 81.0286 328.331 80.7031 328.498 80.2812C328.665 79.8542 328.748 79.3411 328.748 78.7422V78.7266C328.748 78.1224 328.665 77.6094 328.498 77.1875C328.331 76.7604 328.089 76.4349 327.771 76.2109C327.459 75.9818 327.079 75.8672 326.631 75.8672C326.183 75.8672 325.8 75.9818 325.482 76.2109C325.165 76.4349 324.923 76.7604 324.756 77.1875C324.589 77.6094 324.506 78.1224 324.506 78.7266V78.7422C324.506 79.3411 324.589 79.8542 324.756 80.2812C324.923 80.7083 325.162 81.0339 325.475 81.2578C325.792 81.4818 326.178 81.5938 326.631 81.5938ZM332.869 83V74.4609H334.815V75.7734H334.948C335.093 75.3151 335.354 74.9583 335.729 74.7031C336.109 74.4479 336.58 74.3203 337.143 74.3203C337.289 74.3203 337.432 74.3307 337.573 74.3516C337.718 74.3672 337.838 74.388 337.932 74.4141V76.1562C337.776 76.1198 337.617 76.0938 337.455 76.0781C337.299 76.0573 337.135 76.0469 336.963 76.0469C336.531 76.0469 336.153 76.1276 335.83 76.2891C335.507 76.4505 335.257 76.6823 335.08 76.9844C334.903 77.2812 334.815 77.6328 334.815 78.0391V83H332.869ZM341.92 83.1406C341.384 83.1406 340.902 83.0365 340.475 82.8281C340.053 82.6198 339.72 82.3255 339.475 81.9453C339.235 81.5599 339.116 81.1068 339.116 80.5859V80.5703C339.116 80.0651 339.241 79.6302 339.491 79.2656C339.741 78.8958 340.108 78.6068 340.592 78.3984C341.077 78.1901 341.665 78.0677 342.358 78.0312L345.514 77.8359V79.1172L342.631 79.3047C342.084 79.3359 341.681 79.4505 341.42 79.6484C341.16 79.8464 341.03 80.1224 341.03 80.4766V80.4922C341.03 80.8568 341.168 81.1406 341.444 81.3438C341.725 81.5469 342.082 81.6484 342.514 81.6484C342.905 81.6484 343.254 81.5703 343.561 81.4141C343.868 81.2578 344.11 81.0469 344.288 80.7812C344.465 80.5104 344.553 80.2057 344.553 79.8672V77.1641C344.553 76.737 344.418 76.4115 344.147 76.1875C343.876 75.9583 343.475 75.8438 342.944 75.8438C342.501 75.8438 342.139 75.9219 341.858 76.0781C341.577 76.2292 341.387 76.4453 341.288 76.7266L341.28 76.7578H339.444L339.452 76.6875C339.514 76.2083 339.702 75.7891 340.014 75.4297C340.327 75.0703 340.741 74.7917 341.256 74.5938C341.772 74.3958 342.366 74.2969 343.038 74.2969C343.777 74.2969 344.402 74.4115 344.913 74.6406C345.423 74.8646 345.811 75.1927 346.077 75.625C346.342 76.0521 346.475 76.5651 346.475 77.1641V83H344.553V81.8281H344.42C344.264 82.099 344.061 82.3333 343.811 82.5312C343.566 82.7292 343.285 82.8802 342.967 82.9844C342.65 83.0885 342.301 83.1406 341.92 83.1406ZM352.659 86C351.909 86 351.26 85.901 350.714 85.7031C350.172 85.5052 349.745 85.224 349.432 84.8594C349.12 84.5 348.93 84.0807 348.862 83.6016L348.87 83.5781H350.807L350.823 83.6016C350.885 83.8724 351.076 84.0938 351.393 84.2656C351.716 84.4427 352.148 84.5312 352.69 84.5312C353.357 84.5312 353.872 84.3828 354.237 84.0859C354.607 83.7891 354.792 83.3672 354.792 82.8203V81.1797H354.659C354.497 81.487 354.286 81.7474 354.026 81.9609C353.771 82.1745 353.477 82.3359 353.143 82.4453C352.815 82.5495 352.453 82.6016 352.057 82.6016C351.339 82.6016 350.716 82.4297 350.19 82.0859C349.664 81.737 349.258 81.2552 348.971 80.6406C348.69 80.026 348.549 79.3151 348.549 78.5078V78.4922C348.549 77.6693 348.693 76.9453 348.979 76.3203C349.266 75.6953 349.672 75.2057 350.198 74.8516C350.729 74.4974 351.362 74.3203 352.096 74.3203C352.492 74.3203 352.854 74.3828 353.182 74.5078C353.516 74.6328 353.807 74.8099 354.057 75.0391C354.313 75.2682 354.521 75.5443 354.682 75.8672H354.784V74.4609H356.729V82.7891C356.729 83.4453 356.563 84.013 356.229 84.4922C355.901 84.9766 355.432 85.349 354.823 85.6094C354.214 85.8698 353.492 86 352.659 86ZM352.659 81.0547C353.107 81.0547 353.492 80.9479 353.815 80.7344C354.138 80.5156 354.385 80.2161 354.557 79.8359C354.734 79.4557 354.823 79.013 354.823 78.5078V78.4922C354.823 77.987 354.734 77.5443 354.557 77.1641C354.385 76.7786 354.138 76.4792 353.815 76.2656C353.492 76.0469 353.107 75.9375 352.659 75.9375C352.206 75.9375 351.82 76.0469 351.503 76.2656C351.19 76.4792 350.951 76.7786 350.784 77.1641C350.622 77.5443 350.542 77.987 350.542 78.4922V78.5078C350.542 79.0078 350.622 79.4505 350.784 79.8359C350.951 80.2161 351.19 80.5156 351.503 80.7344C351.82 80.9479 352.206 81.0547 352.659 81.0547ZM362.944 83.1719C362.095 83.1719 361.366 82.9922 360.757 82.6328C360.153 82.2734 359.686 81.763 359.358 81.1016C359.03 80.4401 358.866 79.6562 358.866 78.75V78.7422C358.866 77.8464 359.028 77.0651 359.351 76.3984C359.679 75.7318 360.142 75.2161 360.741 74.8516C361.34 74.4818 362.043 74.2969 362.851 74.2969C363.663 74.2969 364.361 74.4766 364.944 74.8359C365.533 75.1901 365.986 75.6875 366.304 76.3281C366.621 76.9688 366.78 77.7188 366.78 78.5781V79.2188H359.843V77.9141H365.827L364.905 79.1328V78.3594C364.905 77.7917 364.819 77.3203 364.647 76.9453C364.476 76.5703 364.236 76.2891 363.929 76.1016C363.627 75.9141 363.275 75.8203 362.874 75.8203C362.473 75.8203 362.116 75.9193 361.804 76.1172C361.496 76.3099 361.252 76.5964 361.069 76.9766C360.892 77.3516 360.804 77.8125 360.804 78.3594V79.1406C360.804 79.6667 360.892 80.1172 361.069 80.4922C361.246 80.862 361.496 81.1484 361.819 81.3516C362.147 81.5495 362.535 81.6484 362.983 81.6484C363.332 81.6484 363.632 81.599 363.882 81.5C364.137 81.3958 364.343 81.2734 364.499 81.1328C364.655 80.987 364.765 80.849 364.827 80.7188L364.851 80.6641H366.694L366.679 80.7344C366.611 81.0104 366.486 81.2917 366.304 81.5781C366.127 81.8594 365.884 82.1224 365.577 82.3672C365.275 82.6068 364.905 82.8021 364.468 82.9531C364.03 83.099 363.522 83.1719 362.944 83.1719Z" fill="#0E1116"/>
<path d="M436.774 190.424C437.009 190.19 437.009 189.81 436.774 189.576L432.956 185.757C432.722 185.523 432.342 185.523 432.107 185.757C431.873 185.992 431.873 186.372 432.107 186.606L435.501 190L432.107 193.394C431.873 193.628 431.873 194.008 432.107 194.243C432.342 194.477 432.722 194.477 432.956 194.243L436.774 190.424ZM368 190.6L436.35 190.6V189.4L368 189.4V190.6Z" fill="#88929D" fill-opacity="0.8"/>
<path d="M198.512 93.2595C198.668 92.9516 198.565 92.5859 198.283 92.4425L193.676 90.1068C193.393 89.9634 193.038 90.0968 192.882 90.4047C192.726 90.7126 192.828 91.0784 193.111 91.2217L197.205 93.2979L194.944 97.7577C194.788 98.0656 194.891 98.4313 195.173 98.5747C195.456 98.718 195.812 98.5846 195.968 98.2767L198.512 93.2595ZM134.162 117.578L198.162 93.5777L197.838 92.4223L133.838 116.422L134.162 117.578Z" fill="#88929D" fill-opacity="0.8"/>
<path d="M198.512 176.74C198.668 177.048 198.565 177.414 198.283 177.557L193.676 179.893C193.393 180.037 193.038 179.903 192.882 179.595C192.726 179.287 192.828 178.922 193.111 178.778L197.205 176.702L194.944 172.242C194.788 171.934 194.891 171.569 195.173 171.425C195.456 171.282 195.812 171.415 195.968 171.723L198.512 176.74ZM134.162 152.422L198.162 176.422L197.838 177.578L133.838 153.578L134.162 152.422Z" fill="#88929D" fill-opacity="0.8"/>
<path d="M246.444 53L249.751 43.8403H250.9V45.4463H250.469L247.942 53H246.444ZM248.038 50.5244L248.438 49.3818H252.608L253.008 50.5244H248.038ZM253.097 53L250.577 45.4463V43.8403H251.294L254.595 53H253.097ZM257.493 53L255.023 43.8403H256.509L258.191 50.9561H258.273L260.184 43.8403H261.511L263.434 50.9561H263.517L265.192 43.8403H266.671L264.202 53H262.856L260.889 46.1572H260.806L258.838 53H257.493ZM271.607 53.2222C270.917 53.2222 270.316 53.1143 269.804 52.8984C269.292 52.6784 268.888 52.3737 268.592 51.9844C268.295 51.5951 268.126 51.1444 268.084 50.6323L268.078 50.5498H269.48L269.487 50.6196C269.516 50.8947 269.624 51.1338 269.81 51.3369C270.001 51.54 270.255 51.6987 270.572 51.813C270.894 51.9272 271.26 51.9844 271.67 51.9844C272.055 51.9844 272.398 51.923 272.699 51.8003C272.999 51.6776 273.234 51.5083 273.403 51.2925C273.577 51.0767 273.663 50.8291 273.663 50.5498V50.5435C273.663 50.1922 273.53 49.9002 273.264 49.6675C272.997 49.4347 272.561 49.2528 271.956 49.1216L270.953 48.9121C270.026 48.7132 269.351 48.3979 268.928 47.9663C268.505 47.5304 268.293 46.974 268.293 46.2969V46.2905C268.298 45.7616 268.439 45.2961 268.719 44.894C269.002 44.492 269.394 44.1789 269.893 43.9546C270.392 43.7303 270.966 43.6182 271.613 43.6182C272.261 43.6182 272.826 43.7303 273.308 43.9546C273.795 44.1746 274.178 44.4751 274.457 44.856C274.74 45.2368 274.899 45.6663 274.933 46.1445L274.939 46.2271H273.549L273.536 46.1445C273.498 45.8949 273.395 45.6727 273.225 45.478C273.06 45.2834 272.838 45.131 272.559 45.021C272.284 44.9067 271.962 44.8517 271.594 44.856C271.239 44.856 270.921 44.911 270.642 45.021C270.363 45.1268 270.14 45.2812 269.975 45.4844C269.815 45.6875 269.734 45.9329 269.734 46.2207V46.2271C269.734 46.5656 269.863 46.8491 270.121 47.0776C270.384 47.3019 270.809 47.4775 271.397 47.6045L272.4 47.8267C273.039 47.9621 273.558 48.1419 273.955 48.3662C274.353 48.5905 274.643 48.8677 274.825 49.1978C275.011 49.5236 275.104 49.9129 275.104 50.3657V50.3721C275.104 50.9561 274.96 51.4618 274.673 51.8892C274.389 52.3123 273.985 52.6403 273.46 52.873C272.936 53.1058 272.318 53.2222 271.607 53.2222ZM283.903 53.2222C283.213 53.2222 282.612 53.1143 282.1 52.8984C281.588 52.6784 281.184 52.3737 280.887 51.9844C280.591 51.5951 280.422 51.1444 280.38 50.6323L280.373 50.5498H281.776L281.782 50.6196C281.812 50.8947 281.92 51.1338 282.106 51.3369C282.297 51.54 282.551 51.6987 282.868 51.813C283.19 51.9272 283.556 51.9844 283.966 51.9844C284.351 51.9844 284.694 51.923 284.994 51.8003C285.295 51.6776 285.53 51.5083 285.699 51.2925C285.872 51.0767 285.959 50.8291 285.959 50.5498V50.5435C285.959 50.1922 285.826 49.9002 285.559 49.6675C285.293 49.4347 284.857 49.2528 284.252 49.1216L283.249 48.9121C282.322 48.7132 281.647 48.3979 281.224 47.9663C280.801 47.5304 280.589 46.974 280.589 46.2969V46.2905C280.593 45.7616 280.735 45.2961 281.014 44.894C281.298 44.492 281.689 44.1789 282.189 43.9546C282.688 43.7303 283.261 43.6182 283.909 43.6182C284.556 43.6182 285.121 43.7303 285.604 43.9546C286.09 44.1746 286.473 44.4751 286.753 44.856C287.036 45.2368 287.195 45.6663 287.229 46.1445L287.235 46.2271H285.845L285.832 46.1445C285.794 45.8949 285.69 45.6727 285.521 45.478C285.356 45.2834 285.134 45.131 284.855 45.021C284.58 44.9067 284.258 44.8517 283.89 44.856C283.534 44.856 283.217 44.911 282.938 45.021C282.658 45.1268 282.436 45.2812 282.271 45.4844C282.11 45.6875 282.03 45.9329 282.03 46.2207V46.2271C282.03 46.5656 282.159 46.8491 282.417 47.0776C282.68 47.3019 283.105 47.4775 283.693 47.6045L284.696 47.8267C285.335 47.9621 285.853 48.1419 286.251 48.3662C286.649 48.5905 286.939 48.8677 287.121 49.1978C287.307 49.5236 287.4 49.9129 287.4 50.3657V50.3721C287.4 50.9561 287.256 51.4618 286.968 51.8892C286.685 52.3123 286.281 52.6403 285.756 52.873C285.231 53.1058 284.614 53.2222 283.903 53.2222ZM292.482 53.1714C291.83 53.1714 291.261 53.0614 290.774 52.8413C290.287 52.617 289.902 52.3102 289.619 51.9209C289.335 51.5316 289.17 51.0851 289.124 50.5815L289.117 50.499H290.488L290.495 50.5688C290.524 50.8439 290.624 51.0872 290.793 51.2988C290.962 51.5104 291.191 51.6776 291.479 51.8003C291.771 51.9188 292.105 51.978 292.482 51.978C292.858 51.978 293.186 51.9146 293.465 51.7876C293.745 51.6564 293.963 51.4766 294.119 51.248C294.276 51.0153 294.354 50.7508 294.354 50.4546V50.4419C294.354 49.9256 294.179 49.5299 293.827 49.2549C293.476 48.9756 292.996 48.8359 292.386 48.8359H291.276V47.7188H292.342C292.693 47.7188 293 47.6574 293.262 47.5347C293.525 47.4077 293.73 47.2342 293.878 47.0142C294.026 46.7941 294.1 46.5423 294.1 46.2588V46.2461C294.1 45.9499 294.037 45.6981 293.91 45.4907C293.783 45.2791 293.597 45.1183 293.351 45.0083C293.11 44.894 292.816 44.8369 292.469 44.8369C292.13 44.8369 291.83 44.894 291.568 45.0083C291.305 45.1226 291.096 45.2855 290.939 45.4971C290.783 45.7044 290.689 45.9541 290.66 46.2461L290.653 46.3032H289.308L289.314 46.2397C289.365 45.7192 289.526 45.2686 289.797 44.8877C290.072 44.5026 290.436 44.2043 290.888 43.9927C291.345 43.7769 291.872 43.6689 292.469 43.6689C293.078 43.6689 293.609 43.7705 294.062 43.9736C294.515 44.1768 294.866 44.4582 295.116 44.8179C295.366 45.1733 295.49 45.5881 295.49 46.062V46.0747C295.49 46.4556 295.406 46.792 295.236 47.084C295.071 47.3717 294.843 47.613 294.551 47.8076C294.263 47.998 293.933 48.1313 293.561 48.2075V48.2393C294.234 48.2943 294.775 48.5164 295.186 48.9058C295.596 49.2951 295.801 49.8114 295.801 50.4546V50.4673C295.801 50.992 295.66 51.4596 295.376 51.8701C295.093 52.2764 294.701 52.5959 294.202 52.8286C293.707 53.0571 293.133 53.1714 292.482 53.1714Z" fill="#0E1116" fill-opacity="0.52"/>
<path d="M247.149 165V155.84H248.571V159.712H253.268V155.84H254.696V165H253.268V160.944H248.571V165H247.149ZM259.879 165.133C259.206 165.133 258.629 164.989 258.146 164.702C257.664 164.41 257.292 163.997 257.029 163.464C256.771 162.931 256.642 162.3 256.642 161.572V161.566C256.642 160.847 256.771 160.218 257.029 159.681C257.292 159.143 257.66 158.724 258.134 158.424C258.612 158.123 259.171 157.973 259.81 157.973C260.453 157.973 261.005 158.117 261.466 158.405C261.932 158.693 262.289 159.097 262.539 159.617C262.789 160.133 262.914 160.739 262.914 161.433V161.915H257.34V160.931H262.228L261.568 161.845V161.293C261.568 160.802 261.492 160.396 261.339 160.074C261.191 159.748 260.986 159.505 260.724 159.344C260.461 159.183 260.159 159.103 259.816 159.103C259.473 159.103 259.166 159.188 258.895 159.357C258.629 159.522 258.417 159.767 258.261 160.093C258.108 160.419 258.032 160.819 258.032 161.293V161.845C258.032 162.298 258.108 162.685 258.261 163.007C258.413 163.328 258.629 163.574 258.908 163.743C259.192 163.912 259.526 163.997 259.911 163.997C260.207 163.997 260.461 163.957 260.673 163.876C260.889 163.792 261.064 163.688 261.2 163.565C261.339 163.443 261.435 163.322 261.485 163.204L261.511 163.153H262.844L262.831 163.21C262.772 163.438 262.668 163.667 262.52 163.896C262.372 164.12 262.175 164.325 261.93 164.511C261.688 164.697 261.396 164.848 261.054 164.962C260.715 165.076 260.324 165.133 259.879 165.133ZM264.694 165V158.106H266.072V159.147H266.18C266.302 158.779 266.518 158.494 266.827 158.291C267.14 158.087 267.525 157.986 267.982 157.986C268.097 157.986 268.209 157.992 268.319 158.005C268.429 158.018 268.518 158.032 268.585 158.049V159.319C268.463 159.293 268.34 159.274 268.217 159.262C268.099 159.249 267.974 159.243 267.843 159.243C267.491 159.243 267.182 159.31 266.916 159.446C266.654 159.581 266.446 159.772 266.294 160.017C266.146 160.258 266.072 160.546 266.072 160.88V165H264.694ZM272.797 165.133C272.124 165.133 271.542 164.989 271.052 164.702C270.565 164.414 270.19 164.003 269.928 163.47C269.666 162.933 269.534 162.296 269.534 161.56V161.547C269.534 160.806 269.666 160.169 269.928 159.636C270.195 159.103 270.571 158.693 271.058 158.405C271.549 158.117 272.129 157.973 272.797 157.973C273.47 157.973 274.05 158.117 274.536 158.405C275.023 158.688 275.398 159.099 275.66 159.636C275.927 160.169 276.06 160.806 276.06 161.547V161.56C276.06 162.296 275.927 162.933 275.66 163.47C275.398 164.003 275.023 164.414 274.536 164.702C274.054 164.989 273.474 165.133 272.797 165.133ZM272.797 163.978C273.191 163.978 273.525 163.883 273.8 163.692C274.075 163.498 274.285 163.221 274.429 162.861C274.572 162.501 274.644 162.067 274.644 161.56V161.547C274.644 161.035 274.572 160.599 274.429 160.239C274.285 159.88 274.075 159.604 273.8 159.414C273.525 159.219 273.191 159.122 272.797 159.122C272.404 159.122 272.069 159.219 271.794 159.414C271.519 159.604 271.308 159.88 271.159 160.239C271.016 160.599 270.944 161.035 270.944 161.547V161.56C270.944 162.067 271.016 162.501 271.159 162.861C271.308 163.221 271.519 163.498 271.794 163.692C272.069 163.883 272.404 163.978 272.797 163.978ZM277.904 165V155.402H279.281V165H277.904ZM282.246 165L279.77 161.769L280.792 160.912L283.928 165H282.246ZM279.148 162.632L279.091 161.007H279.389L282.119 158.106H283.738L280.627 161.255L280.094 161.693L279.148 162.632ZM287.619 165.133C287.103 165.133 286.667 165.034 286.312 164.835C285.96 164.632 285.696 164.34 285.518 163.959C285.345 163.574 285.258 163.111 285.258 162.569V158.106H286.635V162.245C286.635 162.812 286.748 163.237 286.972 163.521C287.196 163.805 287.562 163.946 288.07 163.946C288.341 163.946 288.582 163.906 288.794 163.826C289.005 163.741 289.183 163.62 289.327 163.464C289.471 163.307 289.576 163.119 289.644 162.899C289.716 162.679 289.752 162.429 289.752 162.15V158.106H291.136V165H289.752V163.959H289.651C289.541 164.204 289.39 164.416 289.2 164.594C289.009 164.767 288.781 164.901 288.514 164.994C288.252 165.087 287.954 165.133 287.619 165.133Z" fill="#0E1116" fill-opacity="0.52"/>
<path d="M474.444 164L477.751 154.84H478.9V156.446H478.469L475.942 164H474.444ZM476.038 161.524L476.438 160.382H480.608L481.008 161.524H476.038ZM481.097 164L478.577 156.446V154.84H479.294L482.595 164H481.097ZM486.394 164.044C485.641 164.044 485.095 163.901 484.756 163.613C484.422 163.321 484.255 162.845 484.255 162.185V158.192H483.176V157.106H484.255V155.367H485.664V157.106H487.143V158.192H485.664V161.848C485.664 162.221 485.738 162.489 485.886 162.654C486.034 162.815 486.28 162.896 486.622 162.896C486.724 162.896 486.811 162.893 486.883 162.889C486.959 162.885 487.046 162.879 487.143 162.87V163.975C487.033 163.992 486.914 164.006 486.788 164.019C486.661 164.036 486.529 164.044 486.394 164.044ZM488.962 164V154.402H490.339V164H488.962ZM494.424 164.114C493.988 164.114 493.597 164.032 493.25 163.867C492.907 163.697 492.636 163.458 492.437 163.149C492.238 162.84 492.139 162.479 492.139 162.064V162.051C492.139 161.637 492.238 161.283 492.437 160.991C492.64 160.699 492.932 160.471 493.313 160.306C493.698 160.136 494.164 160.035 494.71 160.001L497.255 159.849V160.82L494.9 160.972C494.426 161.002 494.077 161.103 493.853 161.277C493.629 161.446 493.516 161.685 493.516 161.994V162.007C493.516 162.32 493.637 162.568 493.878 162.75C494.119 162.927 494.424 163.016 494.792 163.016C495.135 163.016 495.44 162.948 495.706 162.813C495.977 162.673 496.189 162.487 496.341 162.254C496.493 162.017 496.57 161.751 496.57 161.455V159.284C496.57 158.903 496.451 158.613 496.214 158.414C495.981 158.211 495.634 158.109 495.173 158.109C494.788 158.109 494.473 158.177 494.227 158.312C493.986 158.448 493.825 158.638 493.745 158.884L493.732 158.903H492.406L492.412 158.858C492.467 158.478 492.617 158.147 492.863 157.868C493.112 157.585 493.438 157.365 493.84 157.208C494.246 157.051 494.71 156.973 495.23 156.973C495.81 156.973 496.301 157.066 496.703 157.252C497.109 157.434 497.416 157.699 497.623 158.046C497.835 158.389 497.941 158.801 497.941 159.284V164H496.57V163.022H496.468C496.333 163.255 496.163 163.454 495.96 163.619C495.757 163.78 495.526 163.903 495.268 163.987C495.01 164.072 494.729 164.114 494.424 164.114ZM502.533 164.133C501.979 164.133 501.497 164.053 501.086 163.892C500.676 163.727 500.35 163.501 500.109 163.213C499.867 162.921 499.726 162.582 499.683 162.197V162.185H501.067V162.197C501.156 162.455 501.325 162.665 501.575 162.826C501.825 162.986 502.155 163.067 502.565 163.067C502.849 163.067 503.096 163.027 503.308 162.946C503.524 162.866 503.693 162.754 503.816 162.61C503.938 162.466 504 162.301 504 162.115V162.102C504 161.886 503.913 161.704 503.739 161.556C503.566 161.408 503.28 161.287 502.883 161.194L501.778 160.94C501.346 160.843 500.989 160.71 500.705 160.541C500.422 160.371 500.212 160.164 500.077 159.918C499.941 159.669 499.874 159.377 499.874 159.042V159.036C499.874 158.634 499.988 158.279 500.217 157.97C500.445 157.657 500.76 157.413 501.162 157.24C501.569 157.062 502.032 156.973 502.552 156.973C503.077 156.973 503.534 157.056 503.924 157.221C504.317 157.382 504.628 157.606 504.857 157.894C505.085 158.177 505.221 158.507 505.263 158.884V158.89H503.943V158.877C503.879 158.636 503.727 158.435 503.486 158.274C503.249 158.114 502.935 158.033 502.546 158.033C502.296 158.033 502.074 158.073 501.88 158.154C501.685 158.23 501.53 158.338 501.416 158.478C501.306 158.613 501.251 158.774 501.251 158.96V158.973C501.251 159.117 501.287 159.243 501.359 159.354C501.435 159.459 501.554 159.555 501.715 159.639C501.875 159.72 502.083 159.792 502.337 159.855L503.435 160.103C504.095 160.259 504.586 160.486 504.907 160.782C505.233 161.078 505.396 161.476 505.396 161.975V161.988C505.396 162.411 505.271 162.785 505.022 163.111C504.772 163.433 504.431 163.685 504 163.867C503.572 164.044 503.084 164.133 502.533 164.133ZM511.021 164V154.84H512.665L515.578 162.14H515.686L518.6 154.84H520.244V164H518.942V157.284H518.238L519.723 155.094L516.156 164H515.102L511.541 155.094L513.02 157.284H512.322V164H511.021ZM525.439 164.133C524.767 164.133 524.185 163.989 523.694 163.702C523.207 163.414 522.833 163.003 522.57 162.47C522.308 161.933 522.177 161.296 522.177 160.56V160.547C522.177 159.806 522.308 159.169 522.57 158.636C522.837 158.103 523.214 157.693 523.7 157.405C524.191 157.117 524.771 156.973 525.439 156.973C526.112 156.973 526.692 157.117 527.179 157.405C527.665 157.688 528.04 158.099 528.302 158.636C528.569 159.169 528.702 159.806 528.702 160.547V160.56C528.702 161.296 528.569 161.933 528.302 162.47C528.04 163.003 527.665 163.414 527.179 163.702C526.696 163.989 526.117 164.133 525.439 164.133ZM525.439 162.978C525.833 162.978 526.167 162.883 526.442 162.692C526.717 162.498 526.927 162.221 527.071 161.861C527.215 161.501 527.287 161.067 527.287 160.56V160.547C527.287 160.035 527.215 159.599 527.071 159.239C526.927 158.88 526.717 158.604 526.442 158.414C526.167 158.219 525.833 158.122 525.439 158.122C525.046 158.122 524.712 158.219 524.437 158.414C524.161 158.604 523.95 158.88 523.802 159.239C523.658 159.599 523.586 160.035 523.586 160.547V160.56C523.586 161.067 523.658 161.501 523.802 161.861C523.95 162.221 524.161 162.498 524.437 162.692C524.712 162.883 525.046 162.978 525.439 162.978ZM530.483 164V157.106H531.86V158.147H531.968C532.137 157.779 532.387 157.492 532.717 157.284C533.047 157.077 533.464 156.973 533.968 156.973C534.742 156.973 535.335 157.195 535.745 157.64C536.156 158.084 536.361 158.717 536.361 159.538V164H534.977V159.861C534.977 159.286 534.856 158.858 534.615 158.579C534.378 158.296 534.006 158.154 533.498 158.154C533.164 158.154 532.874 158.228 532.628 158.376C532.383 158.52 532.193 158.727 532.057 158.998C531.926 159.265 531.86 159.584 531.86 159.957V164H530.483ZM541.334 166.431C540.75 166.431 540.243 166.351 539.811 166.19C539.384 166.029 539.045 165.805 538.795 165.517C538.546 165.229 538.393 164.895 538.338 164.514L538.345 164.501H539.741L539.747 164.514C539.807 164.751 539.974 164.946 540.249 165.098C540.524 165.25 540.892 165.327 541.353 165.327C541.92 165.327 542.363 165.198 542.68 164.939C543.002 164.681 543.162 164.319 543.162 163.854V162.502H543.055C542.919 162.747 542.746 162.959 542.534 163.137C542.322 163.31 542.081 163.441 541.81 163.53C541.54 163.619 541.245 163.664 540.928 163.664C540.344 163.664 539.836 163.524 539.405 163.245C538.977 162.961 538.647 162.572 538.414 162.077C538.186 161.577 538.072 161.004 538.072 160.356V160.344C538.072 159.688 538.188 159.108 538.421 158.604C538.654 158.097 538.986 157.701 539.417 157.417C539.849 157.13 540.363 156.986 540.96 156.986C541.281 156.986 541.576 157.037 541.842 157.138C542.113 157.24 542.352 157.384 542.559 157.57C542.767 157.756 542.938 157.978 543.074 158.236H543.156V157.106H544.534V163.86C544.534 164.381 544.402 164.834 544.14 165.219C543.882 165.604 543.514 165.902 543.036 166.114C542.557 166.325 541.99 166.431 541.334 166.431ZM541.315 162.521C541.705 162.521 542.039 162.43 542.318 162.248C542.598 162.062 542.811 161.806 542.959 161.48C543.112 161.154 543.188 160.778 543.188 160.35V160.337C543.188 159.914 543.112 159.538 542.959 159.208C542.811 158.877 542.598 158.619 542.318 158.433C542.039 158.247 541.705 158.154 541.315 158.154C540.926 158.154 540.594 158.247 540.319 158.433C540.048 158.619 539.841 158.877 539.697 159.208C539.553 159.533 539.481 159.91 539.481 160.337V160.35C539.481 160.778 539.553 161.154 539.697 161.48C539.841 161.806 540.048 162.062 540.319 162.248C540.594 162.43 540.926 162.521 541.315 162.521ZM549.583 164.133C548.91 164.133 548.329 163.989 547.838 163.702C547.351 163.414 546.977 163.003 546.714 162.47C546.452 161.933 546.321 161.296 546.321 160.56V160.547C546.321 159.806 546.452 159.169 546.714 158.636C546.981 158.103 547.357 157.693 547.844 157.405C548.335 157.117 548.915 156.973 549.583 156.973C550.256 156.973 550.836 157.117 551.323 157.405C551.809 157.688 552.184 158.099 552.446 158.636C552.713 159.169 552.846 159.806 552.846 160.547V160.56C552.846 161.296 552.713 161.933 552.446 162.47C552.184 163.003 551.809 163.414 551.323 163.702C550.84 163.989 550.26 164.133 549.583 164.133ZM549.583 162.978C549.977 162.978 550.311 162.883 550.586 162.692C550.861 162.498 551.071 162.221 551.215 161.861C551.359 161.501 551.43 161.067 551.43 160.56V160.547C551.43 160.035 551.359 159.599 551.215 159.239C551.071 158.88 550.861 158.604 550.586 158.414C550.311 158.219 549.977 158.122 549.583 158.122C549.19 158.122 548.855 158.219 548.58 158.414C548.305 158.604 548.094 158.88 547.946 159.239C547.802 159.599 547.73 160.035 547.73 160.547V160.56C547.73 161.067 547.802 161.501 547.946 161.861C548.094 162.221 548.305 162.498 548.58 162.692C548.855 162.883 549.19 162.978 549.583 162.978ZM554.785 164V154.84H558.093C559.002 154.84 559.779 155.02 560.422 155.38C561.065 155.74 561.556 156.258 561.895 156.935C562.238 157.612 562.409 158.431 562.409 159.392V159.404C562.409 160.373 562.238 161.201 561.895 161.886C561.556 162.572 561.065 163.097 560.422 163.46C559.783 163.82 559.007 164 558.093 164H554.785ZM556.207 162.769H557.934C558.573 162.769 559.117 162.637 559.565 162.375C560.018 162.113 560.361 161.732 560.594 161.232C560.83 160.733 560.949 160.13 560.949 159.423V159.411C560.949 158.708 560.828 158.107 560.587 157.608C560.35 157.109 560.007 156.728 559.559 156.465C559.11 156.203 558.569 156.072 557.934 156.072H556.207V162.769ZM565.186 164V162.838H567.954C568.597 162.838 569.084 162.709 569.414 162.451C569.744 162.193 569.909 161.819 569.909 161.328V161.315C569.909 160.985 569.833 160.71 569.68 160.49C569.528 160.27 569.299 160.105 568.995 159.995C568.694 159.88 568.32 159.823 567.871 159.823H565.186V158.738H567.586C568.216 158.738 568.692 158.624 569.014 158.395C569.335 158.162 569.496 157.824 569.496 157.379V157.367C569.496 156.935 569.35 156.601 569.058 156.364C568.766 156.123 568.356 156.002 567.827 156.002H565.186V154.84H568.163C568.735 154.84 569.225 154.933 569.636 155.12C570.051 155.306 570.368 155.57 570.588 155.913C570.808 156.252 570.918 156.654 570.918 157.119V157.132C570.918 157.453 570.846 157.754 570.702 158.033C570.558 158.308 570.366 158.541 570.125 158.731C569.883 158.922 569.611 159.042 569.306 159.093V159.201C569.721 159.243 570.082 159.364 570.391 159.563C570.7 159.762 570.941 160.02 571.115 160.337C571.288 160.651 571.375 161.006 571.375 161.404V161.417C571.375 161.95 571.248 162.411 570.994 162.8C570.745 163.185 570.387 163.482 569.922 163.689C569.456 163.896 568.897 164 568.246 164H565.186ZM564.475 164V154.84H565.897V164H564.475Z" fill="#0E1116" fill-opacity="0.52"/>
<path d="M18.8599 109V107.838H21.6274C22.2707 107.838 22.7573 107.709 23.0874 107.451C23.4175 107.193 23.5825 106.819 23.5825 106.328V106.315C23.5825 105.985 23.5063 105.71 23.354 105.49C23.2017 105.27 22.9731 105.105 22.6685 104.995C22.368 104.88 21.9935 104.823 21.5449 104.823H18.8599V103.738H21.2593C21.8898 103.738 22.3659 103.624 22.6875 103.395C23.0091 103.162 23.1699 102.824 23.1699 102.379V102.367C23.1699 101.935 23.0239 101.601 22.7319 101.364C22.4399 101.123 22.0295 101.002 21.5005 101.002H18.8599V99.8403H21.8369C22.4082 99.8403 22.8991 99.9334 23.3096 100.12C23.7243 100.306 24.0417 100.57 24.2617 100.913C24.4818 101.252 24.5918 101.654 24.5918 102.119V102.132C24.5918 102.453 24.5199 102.754 24.376 103.033C24.2321 103.308 24.0396 103.541 23.7983 103.731C23.5571 103.922 23.2842 104.042 22.9795 104.093V104.201C23.3942 104.243 23.756 104.364 24.0649 104.563C24.3739 104.762 24.6151 105.02 24.7886 105.337C24.9621 105.651 25.0488 106.006 25.0488 106.404V106.417C25.0488 106.95 24.9219 107.411 24.668 107.8C24.4183 108.185 24.0607 108.482 23.5952 108.689C23.1297 108.896 22.5711 109 21.9194 109H18.8599ZM18.1489 109V99.8403H19.5708V109H18.1489ZM26.8549 109V102.106H28.2324V103.147H28.3403C28.463 102.779 28.6788 102.494 28.9877 102.291C29.3009 102.087 29.686 101.986 30.143 101.986C30.2573 101.986 30.3694 101.992 30.4794 102.005C30.5895 102.018 30.6783 102.032 30.746 102.049V103.319C30.6233 103.293 30.5006 103.274 30.3779 103.262C30.2594 103.249 30.1345 103.243 30.0034 103.243C29.6521 103.243 29.3432 103.31 29.0766 103.446C28.8142 103.581 28.6069 103.772 28.4545 104.017C28.3064 104.258 28.2324 104.546 28.2324 104.88V109H26.8549ZM34.9579 109.133C34.285 109.133 33.7032 108.989 33.2123 108.702C32.7256 108.414 32.3511 108.003 32.0887 107.47C31.8264 106.933 31.6952 106.296 31.6952 105.56V105.547C31.6952 104.806 31.8264 104.169 32.0887 103.636C32.3553 103.103 32.732 102.693 33.2186 102.405C33.7095 102.117 34.2893 101.973 34.9579 101.973C35.6307 101.973 36.2105 102.117 36.6971 102.405C37.1838 102.688 37.5583 103.099 37.8207 103.636C38.0873 104.169 38.2206 104.806 38.2206 105.547V105.56C38.2206 106.296 38.0873 106.933 37.8207 107.47C37.5583 108.003 37.1838 108.414 36.6971 108.702C36.2147 108.989 35.635 109.133 34.9579 109.133ZM34.9579 107.978C35.3514 107.978 35.6857 107.883 35.9608 107.692C36.2359 107.498 36.4453 107.221 36.5892 106.861C36.7331 106.501 36.805 106.067 36.805 105.56V105.547C36.805 105.035 36.7331 104.599 36.5892 104.239C36.4453 103.88 36.2359 103.604 35.9608 103.414C35.6857 103.219 35.3514 103.122 34.9579 103.122C34.5643 103.122 34.23 103.219 33.9549 103.414C33.6799 103.604 33.4683 103.88 33.3202 104.239C33.1763 104.599 33.1044 105.035 33.1044 105.547V105.56C33.1044 106.067 33.1763 106.501 33.3202 106.861C33.4683 107.221 33.6799 107.498 33.9549 107.692C34.23 107.883 34.5643 107.978 34.9579 107.978ZM41.055 109L39.157 102.106H40.5472L41.7786 107.426H41.8865L43.302 102.106H44.616L46.0379 107.426H46.1395L47.3772 102.106H48.742L46.8504 109H45.4222L43.9939 103.858H43.886L42.4705 109H41.055ZM52.6174 109.133C52.063 109.133 51.5806 109.053 51.1701 108.892C50.7597 108.727 50.4338 108.501 50.1926 108.213C49.9514 107.921 49.8096 107.582 49.7673 107.197V107.185H51.1511V107.197C51.24 107.455 51.4092 107.665 51.6589 107.826C51.9086 107.986 52.2387 108.067 52.6491 108.067C52.9327 108.067 53.1802 108.027 53.3918 107.946C53.6076 107.866 53.7769 107.754 53.8996 107.61C54.0224 107.466 54.0837 107.301 54.0837 107.115V107.102C54.0837 106.886 53.997 106.704 53.8235 106.556C53.65 106.408 53.3643 106.287 52.9665 106.194L51.862 105.94C51.4304 105.843 51.0728 105.71 50.7893 105.541C50.5058 105.371 50.2963 105.164 50.1609 104.918C50.0254 104.669 49.9577 104.377 49.9577 104.042V104.036C49.9577 103.634 50.072 103.279 50.3005 102.97C50.529 102.657 50.8443 102.413 51.2463 102.24C51.6526 102.062 52.1159 101.973 52.6365 101.973C53.1612 101.973 53.6182 102.056 54.0075 102.221C54.4011 102.382 54.7121 102.606 54.9407 102.894C55.1692 103.177 55.3046 103.507 55.3469 103.884V103.89H54.0266V103.877C53.9631 103.636 53.8108 103.435 53.5696 103.274C53.3326 103.114 53.0194 103.033 52.6301 103.033C52.3804 103.033 52.1583 103.073 51.9636 103.154C51.7689 103.23 51.6145 103.338 51.5002 103.478C51.3902 103.613 51.3352 103.774 51.3352 103.96V103.973C51.3352 104.117 51.3712 104.243 51.4431 104.354C51.5193 104.459 51.6378 104.555 51.7986 104.639C51.9594 104.72 52.1667 104.792 52.4206 104.855L53.5188 105.103C54.1789 105.259 54.6698 105.486 54.9914 105.782C55.3173 106.078 55.4802 106.476 55.4802 106.975V106.988C55.4802 107.411 55.3554 107.785 55.1057 108.111C54.856 108.433 54.5154 108.685 54.0837 108.867C53.6563 109.044 53.1675 109.133 52.6174 109.133ZM60.1554 109.133C59.4826 109.133 58.9049 108.989 58.4225 108.702C57.9401 108.41 57.5677 107.997 57.3053 107.464C57.0472 106.931 56.9181 106.3 56.9181 105.572V105.566C56.9181 104.847 57.0472 104.218 57.3053 103.681C57.5677 103.143 57.9359 102.724 58.4098 102.424C58.888 102.123 59.4466 101.973 60.0856 101.973C60.7288 101.973 61.2811 102.117 61.7423 102.405C62.2078 102.693 62.5654 103.097 62.8151 103.617C63.0648 104.133 63.1896 104.739 63.1896 105.433V105.915H57.6164V104.931H62.5041L61.8439 105.845V105.293C61.8439 104.802 61.7677 104.396 61.6154 104.074C61.4673 103.748 61.262 103.505 60.9997 103.344C60.7373 103.183 60.4347 103.103 60.092 103.103C59.7492 103.103 59.4424 103.188 59.1715 103.357C58.9049 103.522 58.6934 103.767 58.5368 104.093C58.3844 104.419 58.3083 104.819 58.3083 105.293V105.845C58.3083 106.298 58.3844 106.685 58.5368 107.007C58.6891 107.328 58.9049 107.574 59.1842 107.743C59.4678 107.912 59.8021 107.997 60.1872 107.997C60.4834 107.997 60.7373 107.957 60.9489 107.876C61.1647 107.792 61.3403 107.688 61.4757 107.565C61.6154 107.443 61.7106 107.322 61.7614 107.204L61.7868 107.153H63.1198L63.1071 107.21C63.0478 107.438 62.9442 107.667 62.7961 107.896C62.6479 108.12 62.4512 108.325 62.2057 108.511C61.9645 108.697 61.6725 108.848 61.3297 108.962C60.9912 109.076 60.5998 109.133 60.1554 109.133ZM64.9703 109V102.106H66.3477V103.147H66.4557C66.5784 102.779 66.7942 102.494 67.1031 102.291C67.4163 102.087 67.8014 101.986 68.2584 101.986C68.3727 101.986 68.4848 101.992 68.5948 102.005C68.7048 102.018 68.7937 102.032 68.8614 102.049V103.319C68.7387 103.293 68.616 103.274 68.4933 103.262C68.3748 103.249 68.2499 103.243 68.1187 103.243C67.7675 103.243 67.4586 103.31 67.192 103.446C66.9296 103.581 66.7223 103.772 66.5699 104.017C66.4218 104.258 66.3477 104.546 66.3477 104.88V109H64.9703Z" fill="#0E1116" fill-opacity="0.52"/>
</svg>
