<svg width="20" height="20" viewBox="0 0 22 22"
     fill="none" xmlns="http://www.w3.org/2000/svg"
>
    <path fill-rule="evenodd" clip-rule="evenodd"
          d="M11 22C4.92487 22 0 17.0751 0 11C0 4.92487 4.92487 0 11 0C17.0751 0 22 4.92487 22 11C22 17.0751 17.0751 22 11 22ZM11.005 15C13.665 15 13.665 19 11.005 19H10.995C8.335 19 8.335 15 10.995 15H11.005ZM12.99 10.7778V5.22222C12.99 2.25926 9 2.25926 9 5.22222V10.7778C9 13.7407 12.99 13.7407 12.99 10.7778Z"
          fill="#B33F62"/>
</svg>
