<svg width="64" height="42" viewBox="0 0 64 42" fill="none" xmlns="http://www.w3.org/2000/svg">
<rect width="64" height="42" fill="white"/>
<path d="M5.586 28.252C4.788 28.252 4.2 28.042 3.822 27.622C3.444 27.188 3.255 26.614 3.255 25.9C3.255 25.746 3.269 25.571 3.297 25.375C3.325 25.179 3.36 24.955 3.402 24.703L4.305 19.264H1.428L1.785 17.164H3.654C4.074 17.164 4.389 17.08 4.599 16.912C4.823 16.744 4.97 16.436 5.04 15.988L5.481 13.342H7.938L7.308 17.164H11.613L11.256 19.264H6.951L5.859 25.9L6.279 26.068L9.975 23.317L11.277 24.85L9.681 26.11C9.219 26.474 8.806 26.796 8.442 27.076C8.078 27.342 7.735 27.566 7.413 27.748C7.105 27.916 6.804 28.042 6.51 28.126C6.216 28.21 5.908 28.252 5.586 28.252ZM15.6158 22.897L16.0358 20.314H22.5038L22.0838 22.897H15.6158ZM30.7696 28.252C29.9716 28.252 29.3836 28.042 29.0056 27.622C28.6276 27.188 28.4386 26.614 28.4386 25.9C28.4386 25.746 28.4526 25.571 28.4806 25.375C28.5086 25.179 28.5436 24.955 28.5856 24.703L29.4886 19.264H26.6116L26.9686 17.164H28.8376C29.2576 17.164 29.5726 17.08 29.7826 16.912C30.0066 16.744 30.1536 16.436 30.2236 15.988L30.6646 13.342H33.1216L32.4916 17.164H36.7966L36.4396 19.264H32.1346L31.0426 25.9L31.4626 26.068L35.1586 23.317L36.4606 24.85L34.8646 26.11C34.4026 26.474 33.9896 26.796 33.6256 27.076C33.2616 27.342 32.9186 27.566 32.5966 27.748C32.2886 27.916 31.9876 28.042 31.6936 28.126C31.3996 28.21 31.0916 28.252 30.7696 28.252ZM40.7994 22.897L41.2194 20.314H47.6874L47.2674 22.897H40.7994ZM55.9322 28.252C55.2182 28.252 54.5742 28.147 54.0002 27.937C53.4402 27.713 52.9642 27.398 52.5722 26.992C52.1942 26.586 51.9002 26.096 51.6902 25.522C51.4942 24.948 51.3962 24.311 51.3962 23.611C51.3962 22.575 51.5432 21.644 51.8372 20.818C52.1312 19.992 52.5442 19.292 53.0762 18.718C53.6082 18.13 54.2382 17.682 54.9662 17.374C55.7082 17.066 56.5202 16.912 57.4022 16.912C58.1162 16.912 58.7532 17.024 59.3132 17.248C59.8872 17.458 60.3632 17.766 60.7412 18.172C61.1332 18.578 61.4272 19.068 61.6232 19.642C61.8332 20.216 61.9382 20.853 61.9382 21.553C61.9382 22.589 61.7912 23.52 61.4972 24.346C61.2032 25.172 60.7902 25.879 60.2582 26.467C59.7262 27.041 59.0892 27.482 58.3472 27.79C57.6192 28.098 56.8142 28.252 55.9322 28.252ZM56.1212 26.215C56.9052 26.215 57.5282 25.984 57.9902 25.522C58.4662 25.046 58.7812 24.374 58.9352 23.506L59.1872 22.015C59.2152 21.847 59.2362 21.679 59.2502 21.511C59.2782 21.343 59.2922 21.196 59.2922 21.07C59.2922 20.356 59.1032 19.824 58.7252 19.474C58.3612 19.124 57.8572 18.949 57.2132 18.949C56.4292 18.949 55.7992 19.187 55.3232 19.663C54.8612 20.125 54.5532 20.79 54.3992 21.658L54.1472 23.149C54.1192 23.317 54.0912 23.485 54.0632 23.653C54.0492 23.821 54.0422 23.968 54.0422 24.094C54.0422 24.808 54.2242 25.34 54.5882 25.69C54.9662 26.04 55.4772 26.215 56.1212 26.215Z" fill="black"/>
</svg>
