<svg width="112" height="19" viewBox="0 0 112 19" fill="none" xmlns="http://www.w3.org/2000/svg">
    <path d="M5.83594 18.2343C6.69141 18.2343 7.53516 18.0468 7.96875 17.8828V15.2929C7.58203 15.4804 6.9375 15.7148 6.33984 15.7148C5.58984 15.7148 5.03906 15.3867 5.03906 14.2617V8.68357H7.96875V6.29294H5.03906V1.34763L2.22656 3.38669V6.29294H0.292969V8.68357H2.17969V14.7656C2.17969 16.8984 3.55078 18.2343 5.83594 18.2343Z"
          fill="black"/>
    <path d="M9.48141 18H12.247V13.0547C12.247 10.0781 13.6416 8.83591 14.9775 8.83591C15.4345 8.83591 15.8681 8.97653 16.2548 9.23435L17.5556 6.8906C16.9931 6.31638 16.1845 6.04685 15.4111 6.04685C14.0986 6.04685 12.7744 6.84372 12.2705 8.26169V6.29294H9.48141V18Z"
          fill="black"/>
    <path d="M22.0448 18.2343C23.205 18.2343 24.5644 17.789 25.5019 16.6289V18H28.3378V6.29294H25.5019V12.6914C25.5019 14.7304 24.4706 15.5976 22.8652 15.5976C21.4003 15.5976 20.6269 14.4961 20.6269 12.9609V6.29294H17.8027V13.3242C17.8027 15.7734 18.9745 18.2343 22.0448 18.2343Z"
          fill="black"/>
    <path d="M35.6395 18.2343C37.6083 18.2343 39.1669 17.5429 40.4442 16.125L38.4755 14.4023C37.6552 15.3164 36.7177 15.6445 35.663 15.6445C33.8231 15.6445 32.9794 14.6133 32.7333 13.0781H40.7723C40.8309 12.914 40.8778 12.4336 40.8778 11.9531C40.8778 9.33982 39.5536 6.04685 35.452 6.04685C31.4911 6.04685 29.7098 9.1406 29.7098 12.1875C29.7098 15.3398 31.6083 18.2343 35.6395 18.2343ZM32.7333 11.0156C33.0028 9.55075 33.7411 8.44919 35.4286 8.44919C36.6708 8.44919 37.6786 9.07028 37.9716 10.2773C38.0419 10.5117 38.0653 10.7578 38.0653 11.0156H32.7333Z"
          fill="black"/>
    <path d="M51.0459 18.2343C51.9014 18.2343 52.7452 18.0468 53.1787 17.8828V15.2929C52.792 15.4804 52.1475 15.7148 51.5498 15.7148C50.7998 15.7148 50.2491 15.3867 50.2491 14.2617V8.68357H53.1787V6.29294H50.2491V1.34763L47.4366 3.38669V6.29294H45.503V8.68357H47.3897V14.7656C47.3897 16.8984 48.7608 18.2343 51.0459 18.2343Z"
          fill="black"/>
    <path d="M59.25 6.04685C56.9414 6.04685 55.4531 7.0781 54.3281 8.61325L56.5195 10.1953C57.0234 9.33982 57.9258 8.54294 59.2734 8.54294C61.1367 8.54294 61.6523 9.28122 61.7109 11.0156H58.5352C55.9102 11.0156 53.8711 11.8593 53.8711 14.4023C53.8711 16.8515 55.7227 18.2343 58.125 18.2343C59.4609 18.2343 61.0195 17.6484 61.7812 16.4414L61.957 18H64.3125V10.8984C64.3125 8.03903 62.4375 6.04685 59.25 6.04685ZM58.6992 15.8203C57.4219 15.8203 56.8008 15.2695 56.8008 14.4961C56.8008 13.7578 57.3984 13.0781 58.6992 13.0781H61.7227V13.1718C61.5469 14.5547 60.457 15.8203 58.6992 15.8203Z"
          fill="black"/>
    <path d="M68.79 18.2343C69.4697 18.2343 70.3252 18.1172 70.9228 18V15.5976C70.6181 15.6445 70.3017 15.6679 70.1377 15.6679C69.5634 15.6679 69.2002 15.4336 69.2002 14.8828V1.44138H66.3408V15.6679C66.3408 17.7304 67.4423 18.2343 68.79 18.2343Z"
          fill="black"/>
    <path d="M77.0761 18.2343C79.0448 18.2343 80.6034 17.5429 81.8808 16.125L79.912 14.4023C79.0917 15.3164 78.1542 15.6445 77.0995 15.6445C75.2597 15.6445 74.4159 14.6133 74.1698 13.0781H82.2089C82.2675 12.914 82.3144 12.4336 82.3144 11.9531C82.3144 9.33982 80.9902 6.04685 76.8886 6.04685C72.9277 6.04685 71.1464 9.1406 71.1464 12.1875C71.1464 15.3398 73.0448 18.2343 77.0761 18.2343ZM74.1698 11.0156C74.4394 9.55075 75.1777 8.44919 76.8652 8.44919C78.1073 8.44919 79.1152 9.07028 79.4081 10.2773C79.4784 10.5117 79.5019 10.7578 79.5019 11.0156H74.1698Z"
          fill="black"/>
    <path d="M93.2442 18.2343C96.8653 18.2343 99.2442 15.4336 99.2442 12.1172C99.2442 8.81247 96.8653 6.04685 93.2442 6.04685C89.6231 6.04685 87.2442 8.81247 87.2442 12.1172C87.2442 15.4336 89.6231 18.2343 93.2442 18.2343ZM93.2442 15.7734C91.088 15.7734 90.2208 14.039 90.2208 12.1172C90.2208 10.1953 91.088 8.5195 93.2442 8.5195C95.4122 8.5195 96.2677 10.1953 96.2677 12.1172C96.2677 14.039 95.4122 15.7734 93.2442 15.7734Z"
          fill="black"/>
    <path d="M104.665 18V8.37597H108.193V5.90397H104.665V4.91997C104.665 3.86397 105.337 3.21597 106.369 3.21597H108.193V0.719971H106.033C103.417 0.719971 101.713 2.32797 101.713 4.77597V5.90397H99.3373V8.37597H101.713V18H104.665Z"
          fill="black"/>
    <path d="M108.989 16.776C108.989 17.448 109.541 18 110.213 18C110.909 18 111.461 17.448 111.461 16.776C111.461 16.08 110.909 15.528 110.213 15.528C109.541 15.528 108.989 16.08 108.989 16.776Z"
          fill="black"/>
</svg>
