<svg width="505" height="406" viewBox="0 0 505 406" fill="none" xmlns="http://www.w3.org/2000/svg">
    <g clip-path="url(#clip0_0_3414)">
        <g clip-path="url(#clip1_0_3414)">
            <path fill-rule="evenodd" clip-rule="evenodd" d="M333.408 302.638V394.362H22.5923V302.638H333.408Z"
                  fill="white"/>
            <path fill-rule="evenodd" clip-rule="evenodd"
                  d="M333.408 301C334.252 301 334.943 301.676 334.997 302.53L335 302.638V394.362C335 395.23 334.343 395.941 333.512 395.997L333.408 396H22.5923C21.7481 396 21.0573 395.324 21.0034 394.47L21 394.362V302.638C21 301.77 21.657 301.059 22.4876 301.003L22.5923 301H333.408ZM333.408 302.638H22.5923V394.362H333.408V302.638ZM249.494 358.328C249.934 358.328 250.29 358.694 250.29 359.147C250.29 359.599 249.934 359.966 249.494 359.966H118.608C118.168 359.966 117.811 359.599 117.811 359.147C117.811 358.694 118.168 358.328 118.608 358.328H249.494ZM300.447 337.034C300.887 337.034 301.243 337.401 301.243 337.853C301.243 338.306 300.887 338.672 300.447 338.672H118.608C118.168 338.672 117.811 338.306 117.811 337.853C117.811 337.401 118.168 337.034 118.608 337.034H300.447Z"
                  fill="#121216"/>
            <path fill-rule="evenodd" clip-rule="evenodd"
                  d="M67.0171 328.345L72.0062 341.716L72.0396 341.794C72.1138 341.944 72.2318 342.068 72.378 342.147L83.7814 348.336L72.378 354.525L72.3073 354.568C72.1709 354.662 72.0654 354.797 72.0062 354.956L67.0171 368.326L62.0282 354.956L61.9948 354.878C61.9206 354.728 61.8027 354.604 61.6565 354.525L50.2522 348.336L61.6565 342.147C61.827 342.055 61.9591 341.902 62.0282 341.716L67.0171 328.345Z"
                  fill="white"/>
            <path fill-rule="evenodd" clip-rule="evenodd"
                  d="M60.6492 340.842L48.1751 347.612L48.1014 347.657C47.6101 347.994 47.6347 348.767 48.1751 349.06L60.6492 355.83L66.2739 370.905L66.3102 370.989C66.6145 371.605 67.51 371.577 67.7605 370.905L73.3857 355.83L85.8593 349.06L85.933 349.015C86.4243 348.678 86.3998 347.905 85.8593 347.612L73.3857 340.842L67.7605 325.767C67.4991 325.066 66.5354 325.066 66.2739 325.767L60.6492 340.842ZM67.0171 328.345L72.0062 341.716L72.0396 341.794C72.1138 341.944 72.2318 342.068 72.378 342.147L83.7814 348.336L72.378 354.525L72.3073 354.568C72.1709 354.662 72.0654 354.797 72.0062 354.956L67.0171 368.326L62.0282 354.956L61.9948 354.878C61.9206 354.728 61.8027 354.604 61.6565 354.525L50.2522 348.336L61.6565 342.147C61.827 342.055 61.9591 341.902 62.0282 341.716L67.0171 328.345Z"
                  fill="#121216"/>
        </g>
        <g clip-path="url(#clip2_0_3414)">
            <path fill-rule="evenodd" clip-rule="evenodd" d="M394.408 174.621V265.379H83.5923V174.621H394.408Z"
                  fill="white"/>
            <path fill-rule="evenodd" clip-rule="evenodd"
                  d="M394.408 173C395.252 173 395.943 173.669 395.997 174.514L396 174.621V265.379C396 266.239 395.343 266.942 394.512 266.997L394.408 267H83.5923C82.7481 267 82.0573 266.331 82.0034 265.486L82 265.379V174.621C82 173.761 82.657 173.058 83.4876 173.003L83.5923 173H394.408ZM394.408 174.621H83.5923V265.379H394.408V174.621ZM310.494 229.724C310.934 229.724 311.29 230.087 311.29 230.534C311.29 230.982 310.934 231.345 310.494 231.345H179.608C179.168 231.345 178.811 230.982 178.811 230.534C178.811 230.087 179.168 229.724 179.608 229.724H310.494ZM361.447 208.655C361.887 208.655 362.243 209.018 362.243 209.466C362.243 209.913 361.887 210.276 361.447 210.276H179.608C179.168 210.276 178.811 209.913 178.811 209.466C178.811 209.018 179.168 208.655 179.608 208.655H361.447Z"
                  fill="#121216"/>
            <path fill-rule="evenodd" clip-rule="evenodd"
                  d="M139.682 200.228C146.167 200.228 151.424 205.498 151.424 212L151.422 212.161C151.271 217.3 143.978 226.384 129.569 239.191L128.592 240.054C128.353 240.264 127.998 240.265 127.759 240.054L127.204 239.566L126.323 238.784C112.068 226.083 104.929 217.082 104.929 212C104.929 205.498 110.186 200.228 116.671 200.228C121.513 200.228 125.804 203.193 127.575 207.624C127.793 208.17 128.562 208.17 128.78 207.624C130.549 203.194 134.84 200.228 139.682 200.228Z"
                  fill="white"/>
            <path fill-rule="evenodd" clip-rule="evenodd"
                  d="M139.432 198.658C134.76 198.745 130.533 201.284 128.219 205.249L128.177 205.322L128.135 205.248C125.779 201.212 121.442 198.655 116.671 198.655C109.338 198.655 103.384 204.625 103.384 212C103.384 217.873 111.042 227.367 126.192 240.753L126.749 241.244C127.569 241.965 128.784 241.964 129.604 241.243L130.141 240.769L131.032 239.977C145.44 227.12 152.798 217.942 152.966 212.208L152.969 212.024C152.969 204.625 147.015 198.655 139.682 198.655L139.432 198.658ZM139.682 200.228C146.167 200.228 151.424 205.499 151.424 212L151.422 212.161C151.271 217.301 143.978 226.384 129.569 239.191L128.593 240.054C128.353 240.264 127.999 240.265 127.759 240.054L127.204 239.566L126.323 238.784C112.069 226.083 104.929 217.082 104.929 212C104.929 205.499 110.186 200.228 116.671 200.228C121.513 200.228 125.804 203.194 127.575 207.625C127.793 208.17 128.562 208.17 128.78 207.624C130.549 203.194 134.84 200.228 139.682 200.228Z"
                  fill="#121216"/>
        </g>
        <g clip-path="url(#clip3_0_3414)">
            <path fill-rule="evenodd" clip-rule="evenodd" d="M313.408 45.6379V137.362H2.59229V45.6379H313.408Z"
                  fill="white"/>
            <path fill-rule="evenodd" clip-rule="evenodd"
                  d="M313.408 44C314.252 44 314.943 44.6758 314.997 45.5302L315 45.6379V137.362C315 138.23 314.343 138.941 313.512 138.997L313.408 139H2.59229C1.74807 139 1.0573 138.324 1.00339 137.47L1 137.362V45.6379C1 44.7695 1.657 44.0589 2.4876 44.0035L2.59229 44H313.408ZM313.408 45.6379H2.59229V137.362H313.408V45.6379ZM229.494 101.328C229.934 101.328 230.29 101.694 230.29 102.147C230.29 102.599 229.934 102.966 229.494 102.966H98.6075C98.1678 102.966 97.8114 102.599 97.8114 102.147C97.8114 101.694 98.1678 101.328 98.6075 101.328H229.494ZM280.447 80.0345C280.887 80.0345 281.243 80.4011 281.243 80.8534C281.243 81.3057 280.887 81.6724 280.447 81.6724H98.6075C98.1678 81.6724 97.8114 81.3057 97.8114 80.8534C97.8114 80.4011 98.1678 80.0345 98.6075 80.0345H280.447Z"
                  fill="#121216"/>
            <path fill-rule="evenodd" clip-rule="evenodd"
                  d="M58.6823 71.5171C65.1671 71.5171 70.4239 76.844 70.4239 83.4148L70.4215 83.5773C70.2713 88.7716 62.9783 97.9514 48.5686 110.895L47.5924 111.767C47.3533 111.98 46.9984 111.98 46.7591 111.767L46.2042 111.274L45.3226 110.483C31.0684 97.6473 23.929 88.5511 23.929 83.4148C23.929 76.844 29.1857 71.5171 35.6705 71.5171C40.5127 71.5171 44.8041 74.5146 46.5745 78.9927C46.7926 79.5442 47.5622 79.544 47.7801 78.9925C49.5487 74.5148 53.8399 71.5171 58.6823 71.5171Z"
                  fill="white"/>
            <path fill-rule="evenodd" clip-rule="evenodd"
                  d="M58.4318 69.9304C53.7596 70.0191 49.533 72.5842 47.2192 76.5916L47.1766 76.6654L47.1349 76.5913C44.7785 72.5123 40.4417 69.928 35.6707 69.928C28.3379 69.928 22.3843 75.9609 22.3843 83.4148C22.3843 89.3506 30.0416 98.9447 45.1916 112.474L45.7491 112.97C46.5689 113.698 47.7845 113.698 48.6037 112.968L49.141 112.49L50.0319 111.69C64.4396 98.695 71.7982 89.4197 71.9658 83.6246L71.9687 83.4386C71.9689 75.9609 66.0152 69.928 58.6825 69.928L58.4318 69.9304ZM58.6825 71.5171C65.1673 71.5171 70.424 76.844 70.424 83.4148L70.4217 83.5773C70.2714 88.7716 62.9785 97.9514 48.5687 110.895L47.5926 111.767C47.3534 111.98 46.9986 111.98 46.7592 111.767L46.2044 111.274L45.3228 110.483C31.0685 97.6473 23.9291 88.5511 23.9291 83.4148C23.9291 76.844 29.1859 71.5171 35.6707 71.5171C40.5129 71.5171 44.8043 74.5146 46.5747 78.9927C46.7927 79.5442 47.5624 79.544 47.7802 78.9925C49.5489 74.5148 53.8401 71.5171 58.6825 71.5171Z"
                  fill="#121216"/>
        </g>
        <path fill-rule="evenodd" clip-rule="evenodd"
              d="M465.125 241.25C465.125 241.574 464.879 241.84 464.564 241.872L464.5 241.875H419.5C419.155 241.875 418.875 241.595 418.875 241.25C418.875 240.926 419.121 240.66 419.436 240.628L419.5 240.625H464.5C464.845 240.625 465.125 240.905 465.125 241.25ZM475.125 224.25C475.125 224.574 474.879 224.84 474.564 224.872L474.5 224.875H429.5C429.155 224.875 428.875 224.595 428.875 224.25C428.875 223.926 429.121 223.66 429.436 223.628L429.5 223.625H474.5C474.845 223.625 475.125 223.905 475.125 224.25ZM485.125 207.25C485.125 207.574 484.879 207.84 484.564 207.872L484.5 207.875H439.5C439.155 207.875 438.875 207.595 438.875 207.25C438.875 206.926 439.121 206.66 439.436 206.628L439.5 206.625H484.5C484.845 206.625 485.125 206.905 485.125 207.25Z"
              fill="#121216"/>
    </g>
    <defs>
        <clipPath id="clip0_0_3414">
            <rect width="505" height="406" fill="white"/>
        </clipPath>
        <clipPath id="clip1_0_3414">
            <rect width="314" height="95" fill="white" transform="translate(21 301)"/>
        </clipPath>
        <clipPath id="clip2_0_3414">
            <rect width="314" height="94" fill="white" transform="translate(82 173)"/>
        </clipPath>
        <clipPath id="clip3_0_3414">
            <rect width="314" height="95" fill="white" transform="translate(1 44)"/>
        </clipPath>
    </defs>
</svg>
